<svg height="15" viewBox="0 0 28 30" fill="none" xmlns="http://www.w3.org/2000/svg">
<path d="M6.29629 29.0953H0.744114V10.2743H6.29629V29.0953ZM3.51721 7.70689C1.74181 7.70689 0.301758 6.15892 0.301758 4.29004C0.301758 3.39234 0.640528 2.53141 1.24354 1.89665C1.84656 1.26188 2.66442 0.905273 3.51721 0.905273C4.37 0.905273 5.18787 1.26188 5.79088 1.89665C6.39389 2.53141 6.73266 3.39234 6.73267 4.29004C6.73267 6.15892 5.29202 7.70689 3.51721 7.70689ZM21.5361 29.0953V19.9333C21.5361 17.7498 21.4942 14.9496 18.6494 14.9496C15.7627 14.9496 15.3204 17.3219 15.3204 19.776V29.0953H9.77417V10.2743H15.0992V12.8416H15.1769C15.9181 11.3629 17.7288 9.80231 20.4302 9.80231C26.0493 9.80231 27.0823 13.6974 27.0823 18.7566V29.0953H21.5361Z" fill="#000000"/>
</svg>
