<svg height="15" viewBox="0 0 29 30" fill="none" xmlns="http://www.w3.org/2000/svg">
<path d="M14.6535 7.77308C10.6541 7.77308 7.42823 10.9997 7.42823 15C7.42823 19.0003 10.6541 22.2269 14.6535 22.2269C18.6529 22.2269 21.8788 19.0003 21.8788 15C21.8788 10.9997 18.6529 7.77308 14.6535 7.77308ZM14.6535 19.6984C12.069 19.6984 9.95614 17.5914 9.95614 15C9.95614 12.4086 12.0627 10.3016 14.6535 10.3016C17.2443 10.3016 19.3509 12.4086 19.3509 15C19.3509 17.5914 17.238 19.6984 14.6535 19.6984ZM23.8597 7.47746C23.8597 8.41464 23.1051 9.16312 22.1744 9.16312C21.2374 9.16312 20.4891 8.40835 20.4891 7.47746C20.4891 6.54658 21.2437 5.79181 22.1744 5.79181C23.1051 5.79181 23.8597 6.54658 23.8597 7.47746ZM28.6451 9.18827C28.5382 6.93026 28.0226 4.93012 26.3687 3.2822C24.7212 1.63429 22.7215 1.11853 20.464 1.00531C18.1373 0.873229 11.1635 0.873229 8.83682 1.00531C6.58559 1.11224 4.5859 1.628 2.93206 3.27591C1.27823 4.92383 0.768872 6.92396 0.655682 9.18198C0.523627 11.5092 0.523627 18.4845 0.655682 20.8117C0.762584 23.0697 1.27823 25.0699 2.93206 26.7178C4.5859 28.3657 6.5793 28.8815 8.83682 28.9947C11.1635 29.1268 18.1373 29.1268 20.464 28.9947C22.7215 28.8878 24.7212 28.372 26.3687 26.7178C28.0163 25.0699 28.5319 23.0697 28.6451 20.8117C28.7772 18.4845 28.7772 11.5155 28.6451 9.18827ZM25.6393 23.3088C25.1488 24.5415 24.1992 25.4913 22.9604 25.9882C21.1054 26.7241 16.7035 26.5543 14.6535 26.5543C12.6035 26.5543 8.19541 26.7178 6.34663 25.9882C5.11412 25.4976 4.16458 24.5478 3.6678 23.3088C2.93206 21.4533 3.10185 17.0505 3.10185 15C3.10185 12.9495 2.93835 8.54043 3.6678 6.69124C4.15829 5.45845 5.10783 4.5087 6.34663 4.01181C8.20169 3.27591 12.6035 3.44573 14.6535 3.44573C16.7035 3.44573 21.1117 3.2822 22.9604 4.01181C24.193 4.50241 25.1425 5.45216 25.6393 6.69124C26.375 8.54672 26.2052 12.9495 26.2052 15C26.2052 17.0505 26.375 21.4596 25.6393 23.3088Z" fill="#000000"/>
</svg>
