<svg height="15" viewBox="0 0 40 30" fill="none" xmlns="http://www.w3.org/2000/svg">
<path d="M38.3983 5.31605C37.9494 3.57987 36.6268 2.21251 34.9475 1.74848C31.9035 0.905273 19.6978 0.905273 19.6978 0.905273C19.6978 0.905273 7.49211 0.905273 4.44813 1.74848C2.76879 2.21258 1.44616 3.57987 0.997258 5.31605C0.181641 8.46298 0.181641 15.0288 0.181641 15.0288C0.181641 15.0288 0.181641 21.5945 0.997258 24.7415C1.44616 26.4776 2.76879 27.788 4.44813 28.2521C7.49211 29.0953 19.6978 29.0953 19.6978 29.0953C19.6978 29.0953 31.9035 29.0953 34.9475 28.2521C36.6268 27.788 37.9494 26.4776 38.3983 24.7415C39.2139 21.5945 39.2139 15.0288 39.2139 15.0288C39.2139 15.0288 39.2139 8.46298 38.3983 5.31605ZM15.7058 20.99V9.06753L25.9074 15.0289L15.7058 20.99Z" fill="#000000"/>
</svg>
