<svg width="221" height="89" viewBox="0 0 221 89" fill="none" xmlns="http://www.w3.org/2000/svg">
<g id="Vector">
<path d="M27.2681 11.7131C27.9509 12.5869 28.1903 15.0937 27.9775 19.2423C27.7647 23.3909 27.2326 27.001 26.3547 30.0639C27.4454 34.6273 27.7824 38.3169 27.3568 41.1326C26.9311 43.9483 25.601 46.7994 23.3663 49.6769C29.2899 47.1701 32.8281 45.6431 33.9632 45.1046C35.0982 44.5662 36.1091 43.9572 36.9959 43.2687C38.2817 42.2712 39.0709 40.9119 39.3813 39.1819C39.4434 39.0318 39.4877 38.9524 39.5143 38.9347C39.5941 38.9083 39.6562 38.9171 39.7005 38.9347C39.8513 39.1289 39.7804 39.7115 39.4877 40.6736C38.9291 42.439 37.4925 44.2131 35.1869 46.005C33.4932 47.3201 31.7462 48.4235 29.9284 49.315C28.1105 50.2153 25.2019 51.3981 21.2026 52.8633C19.4645 54.867 17.4959 56.7206 15.3145 58.4154C11.4393 61.4253 9.04502 62.3344 8.12278 61.1605C7.25375 60.0571 8.30014 58.3536 11.2619 56.0586C13.5587 54.2756 17.4338 52.2102 22.9141 49.8534C23.854 48.2734 24.4482 46.5522 24.6876 44.6986C24.927 42.845 24.9093 40.091 24.6255 36.4368C23.455 42.4831 21.2647 46.7464 18.0723 49.2267C15.8997 50.9126 13.6739 51.6188 11.3861 51.3451C9.09823 51.0715 7.103 49.8446 5.40041 47.6732C2.79332 44.3455 1.89768 39.9675 2.73124 34.5214C3.55593 29.0841 5.72851 24.9973 9.25784 22.2522C10.8895 20.99 12.5123 20.3986 14.1351 20.478C15.7578 20.5575 17.1235 21.3166 18.2408 22.7377C20.2094 25.2533 21.0696 28.7752 20.8124 33.3033C20.5553 37.8314 19.3138 40.9472 17.1146 42.6684C16.1746 43.3922 15.1548 43.7188 14.0464 43.6306C12.9379 43.5423 12.0423 43.0745 11.3683 42.2095C10.8452 41.5475 10.6057 40.8148 10.6412 40.0028C10.6767 39.1995 10.9782 38.5728 11.5457 38.1315C12.3083 37.5401 12.9823 37.6196 13.5764 38.361C13.8956 38.767 14.0286 39.2437 13.9754 39.7821C13.9222 40.3205 13.7183 40.7354 13.3458 41.0267C12.7428 41.4945 12.2374 41.4415 11.8295 40.8766C11.5634 40.5147 11.3772 40.3647 11.2797 40.4441C11.0048 40.656 11.1733 41.1414 11.7674 41.9005C12.3704 42.6773 13.1685 43.0921 14.1617 43.1539C15.1548 43.2157 16.0859 42.9068 16.9638 42.2271C18.9945 40.6471 20.1296 37.6372 20.3513 33.2062C20.5819 28.7752 19.7749 25.3857 17.9304 23.0466C16.9372 21.7844 15.6869 21.0782 14.1794 20.937C12.6719 20.7958 11.2353 21.2548 9.87858 22.3052C6.60641 24.8473 4.75307 28.8987 4.31855 34.4772C3.87517 40.0557 5.03683 44.6015 7.80355 48.1234C9.09823 49.7828 10.6589 50.6655 12.4591 50.7802C14.2681 50.895 16.1037 50.233 17.9659 48.7854C19.5709 47.5408 20.8568 45.9079 21.8233 43.8954C22.7899 41.8829 23.6678 38.9965 24.457 35.2452C23.8629 30.514 23.5082 27.1775 23.4106 25.2533C23.3042 23.3997 23.3574 21.4048 23.5703 19.2688C23.987 15.1202 24.794 12.5693 26.0089 11.6336C26.5143 11.2453 26.94 11.2629 27.2858 11.7043L27.2681 11.7131ZM20.4488 53.1723C15.0573 55.1671 11.5812 56.7736 10.0293 57.9828C8.41542 59.2362 7.88336 60.2248 8.44202 60.931C9.19577 61.8843 11.457 60.8957 15.2435 57.9564C17.292 56.3675 19.0211 54.7699 20.4488 53.1723ZM26.9488 11.9514C26.736 11.6778 26.4877 11.6601 26.1862 11.8896C25.2729 12.5958 24.7497 14.4935 24.6078 17.5829C24.4925 20.3368 25.0157 24.247 26.1774 29.3048C26.9488 25.9594 27.4188 22.4199 27.5873 18.6862C27.7558 14.9525 27.543 12.7017 26.94 11.9426L26.9488 11.9514Z" fill="white"/>
<path d="M47.8499 31.1407C47.9563 31.3702 47.779 32.0852 47.3179 33.3033C46.6351 35.1128 45.766 36.2602 44.7108 36.7369C44.2674 36.9399 43.8417 37.0282 43.4161 37.0105C42.7422 40.5147 41.5805 42.6331 39.9311 43.3834C39.0798 43.7718 38.1842 43.7541 37.2619 43.3216C36.3397 42.8979 35.648 42.1918 35.2046 41.212C34.2115 39.0318 34.6814 36.2779 36.6323 32.9414C37.998 30.5935 39.337 29.1282 40.6494 28.528C41.8731 27.9719 42.7865 28.3515 43.3806 29.649C44.1255 31.282 44.161 33.6299 43.487 36.7104C43.8506 36.7545 44.2053 36.6927 44.56 36.5339C45.1985 36.2426 45.8104 35.6071 46.3956 34.6273C46.9809 33.6475 47.3533 32.6148 47.513 31.5379C47.5839 31.2731 47.646 31.1143 47.7169 31.0878C47.7701 31.0613 47.8145 31.0789 47.8411 31.1319L47.8499 31.1407ZM43.0703 29.852C42.5471 28.7045 41.7667 28.3691 40.7203 28.837C39.4256 29.4195 38.4059 31.3702 37.6698 34.6803C36.9338 37.9903 36.9516 40.4882 37.7142 42.1742C38.1576 43.1539 38.8581 43.4276 39.7981 43.0039C41.3322 42.3066 42.4407 40.2852 43.1057 36.9399C42.485 36.6751 42.0682 36.2955 41.8465 35.8189C41.5273 35.1216 41.4829 34.2831 41.6958 33.2945C41.9175 32.3059 42.2899 31.6968 42.8131 31.4585C43.0437 31.3526 43.2653 31.4232 43.4782 31.6703C43.4782 31.0701 43.3452 30.4699 43.0614 29.8609L43.0703 29.852Z" fill="white"/>
<path d="M60.4243 27.3099C60.4864 27.4865 60.2115 28.2191 59.6085 29.4901C58.7838 31.2731 57.8881 32.3323 56.9216 32.6589C56.2654 32.8796 55.6091 32.7119 54.9352 32.1558C54.2435 34.4154 53.605 36.0396 53.0109 37.0193C52.4256 37.9991 51.7074 38.6346 50.8649 38.9259C50.1112 39.1819 49.384 39.1378 48.6835 38.7935C47.9829 38.4493 47.513 37.902 47.2558 37.1694C46.9543 36.3044 47.0164 34.8656 47.4332 32.8619L48.9229 25.8094C49.6767 25.6328 50.1733 25.5093 50.4216 25.421C50.9714 25.2356 51.397 25.0503 51.6896 24.8649L49.6235 33.9123C49.1801 35.9425 49.0737 37.2753 49.2954 37.9285C49.5348 38.617 50.0402 38.8288 50.8295 38.564C51.5566 38.3169 52.1862 37.7343 52.7183 36.8075C53.2503 35.8895 53.9154 34.2566 54.6958 31.9351C54.412 31.5379 54.208 31.1672 54.0928 30.8318C53.6317 29.4901 53.5696 27.9719 53.9154 26.2772C54.2524 24.5825 54.8111 23.6027 55.5825 23.3379C55.955 23.2143 56.2121 23.3644 56.3629 23.7881C56.7442 24.8914 56.3008 27.5836 55.0327 31.8734C55.5737 32.4294 56.1678 32.5971 56.824 32.3765C57.9502 31.9881 58.9789 30.5229 59.91 27.9808C60.0873 27.5218 60.2115 27.2834 60.309 27.2481C60.3711 27.2305 60.4065 27.2481 60.4243 27.3099Z" fill="white"/>
<path d="M71.9966 24.8031C72.0055 24.8473 71.9256 25.0768 71.7394 25.4916L71.0744 26.9569C68.9284 31.6174 66.7381 34.2301 64.4945 34.8038C63.4304 35.0775 62.4461 34.9186 61.5239 34.3448C60.6105 33.7711 59.9986 32.9061 59.706 31.7586C59.0055 29.0488 60.2913 26.1713 63.5546 23.1261C65.2749 21.5284 66.7647 20.5663 68.015 20.2485C68.5648 20.1073 69.0703 20.1514 69.5402 20.3809C70.0102 20.6104 70.3029 20.9547 70.427 21.4225C70.7108 22.5082 70.2319 23.6115 69.0082 24.7413C67.7844 25.8712 65.5853 27.1864 62.4284 28.7045C61.7988 30.5229 61.6214 31.9528 61.8875 32.9943C62.2244 34.2919 63.0935 34.7597 64.5034 34.3978C66.8977 33.7888 69.2299 30.7082 71.5 25.165C71.6153 24.8737 71.7394 24.7149 71.8636 24.6884C71.9256 24.6884 71.97 24.7237 71.9877 24.8031H71.9966ZM68.9905 21.0959C68.8663 20.6104 68.5382 20.4427 68.0061 20.5751C67.1992 20.7781 66.2858 21.6079 65.266 23.0466C64.2374 24.4942 63.3329 26.2595 62.5259 28.3427C64.5655 27.2305 66.206 25.9683 67.4563 24.556C68.7067 23.1525 69.221 21.9962 68.9816 21.0871L68.9905 21.0959Z" fill="white"/>
<path d="M80.8731 6.47882C76.5546 18.4214 74.045 25.4387 73.3533 27.5306C72.6617 29.6225 72.3779 30.973 72.4932 31.5821C72.6262 32.2705 72.9898 32.553 73.575 32.4383C74.8697 32.1823 76.7496 29.2959 79.2237 23.7616C79.2681 23.5939 79.3479 23.4968 79.4543 23.4791C79.5164 23.4791 79.5607 23.5233 79.5696 23.6027C79.5873 23.691 79.5341 23.8322 79.41 24.0176L78.6917 25.5622C76.5812 30.1257 74.8342 32.5442 73.4509 32.8178C72.7858 32.9502 72.2005 32.809 71.6774 32.3941C71.1542 31.9793 70.8172 31.3967 70.6664 30.6288C70.498 29.7902 70.5334 28.934 70.764 28.069C71.0034 27.204 71.8813 24.6707 73.3977 20.4692C75.2599 15.3232 76.8029 10.8745 78.0355 7.12318C78.5232 7.15848 78.94 7.132 79.2947 7.07022C79.8799 6.95547 80.3943 6.76128 80.8554 6.47882H80.8731Z" fill="white"/>
<path d="M94.2012 21.8109C94.2367 22.0404 93.5184 23.2143 92.073 25.3239C90.4591 27.6453 88.251 29.8432 85.4311 31.9175L84.5709 34.1065C82.8683 38.4228 80.9263 41.724 78.7449 44.0101C76.4925 46.3757 74.4352 47.6732 72.573 47.9292C71.9345 48.0175 71.3758 47.8851 70.897 47.5408C70.4181 47.1966 70.1344 46.7287 70.0546 46.1462C69.6289 43.048 72.7858 39.3496 79.5075 35.0686C80.0573 34.6979 80.882 34.1683 81.9904 33.4886L82.3097 33.2327L85.4134 25.4387C84.101 27.866 83.1255 29.4636 82.4959 30.2492C81.8574 31.0348 81.1746 31.4761 80.4297 31.5732C79.7913 31.6615 79.206 31.4673 78.6562 30.9907C78.1064 30.514 77.7872 29.9138 77.6896 29.19C77.5743 28.3073 77.9291 26.8598 78.7803 24.8473L81.5471 18.3508C81.9106 18.3684 82.3274 18.342 82.7885 18.2802C83.1964 18.2272 83.7462 18.0948 84.4379 17.8918L80.8643 25.9153C79.8445 28.1926 79.3834 29.649 79.472 30.2934C79.5696 30.9907 79.9331 31.2908 80.5716 31.2025C82.2476 30.973 84.4202 27.6718 87.0805 21.2989L88.7299 17.3798C89.0934 17.3975 89.5368 17.3622 90.0423 17.3004C90.4591 17.2474 90.9734 17.1239 91.5764 16.9297C90.0689 20.2309 88.0737 25.0415 85.5819 31.3614C87.3465 30.1345 88.8008 28.8723 89.9447 27.5571C91.0975 26.2507 92.339 24.4501 93.6692 22.1728C93.8465 21.8638 93.9707 21.7049 94.0327 21.6961C94.1214 21.6873 94.1746 21.7226 94.1924 21.8197L94.2012 21.8109ZM82.1412 33.6563C81.9106 33.8329 81.0948 34.389 79.6937 35.3334C73.1139 39.7733 70.0102 43.3746 70.3915 46.155C70.5511 47.3113 71.2783 47.8056 72.5818 47.6291C74.2224 47.4084 75.7387 46.2962 77.1221 44.3102C78.5055 42.3154 80.1016 38.9347 81.9018 34.1683L82.1412 33.6652V33.6563Z" fill="white"/>
<path d="M148.995 4.36041C148.95 5.40196 147.957 5.87861 146.042 5.79034C144.525 5.71972 140.96 4.8547 135.338 3.19528C132.616 4.58108 131.197 6.41704 131.091 8.70316C131.038 9.8065 131.383 10.5833 132.137 11.0422C133.254 10.9981 134.088 10.9893 134.647 11.0158C136.269 11.0864 137.076 11.3247 137.059 11.7131C137.05 11.9602 136.615 12.0661 135.755 12.0308C134.656 11.9779 133.476 11.7749 132.208 11.4041C130.461 11.5719 128.413 12.1456 126.063 13.1342C120.086 15.6498 116.991 19.1275 116.787 23.5586C116.654 26.4979 118.162 28.4397 121.31 29.3754C120.778 28.4044 120.538 27.2923 120.591 26.0477C120.733 22.9848 122.436 20.2309 125.699 17.7947C128.962 15.3585 132.465 14.2287 136.198 14.3964C137.919 14.4758 139.267 14.9613 140.242 15.844C141.218 16.7267 141.679 17.883 141.608 19.2952C141.466 22.3316 139.666 24.9885 136.207 27.2658C132.749 29.5431 128.918 30.5935 124.724 30.3993C123.881 30.364 123.092 30.2757 122.356 30.1521C123.766 32.2264 125.947 33.3298 128.909 33.471C130.745 33.5593 132.252 33.3474 133.432 32.8619L133.716 32.8266C133.804 32.8619 133.849 32.9237 133.849 33.0208C133.84 33.2415 133.246 33.4445 132.075 33.6299C130.904 33.8152 129.84 33.8858 128.892 33.8417C125.619 33.6917 123.181 32.403 121.567 29.9756C119.208 29.3401 117.381 28.3515 116.095 27.0275C114.81 25.6946 114.198 24.1941 114.278 22.517C114.384 20.2662 115.422 18.1919 117.381 16.3118C119.35 14.4317 121.913 13.0547 125.087 12.1897C127.003 11.6513 129.193 11.2982 131.641 11.1305C129.938 10.3185 129.131 9.11802 129.202 7.53803C129.299 5.49906 130.638 3.85728 133.237 2.60389C129.654 1.56233 126.683 0.99742 124.325 0.882672C119.705 0.67083 115.705 1.64177 112.344 3.7955C108.984 5.94922 107.219 8.65903 107.068 11.9249C106.997 13.3902 107.37 14.6612 108.186 15.7381C109.001 16.8238 110.003 17.3887 111.209 17.4416C112.034 17.4769 112.46 17.371 112.469 17.1062C112.469 16.965 112.327 16.912 112.025 16.9473C111.201 16.912 110.801 16.506 110.837 15.7469C110.855 15.3144 111.059 14.9437 111.44 14.6524C111.821 14.3611 112.274 14.2199 112.788 14.2464C113.79 14.2905 114.269 14.7936 114.224 15.7646C114.198 16.4001 113.887 16.9297 113.293 17.3445C112.699 17.7594 111.999 17.9536 111.192 17.9183C109.737 17.8477 108.531 17.1415 107.565 15.7999C106.598 14.4582 106.164 12.8606 106.244 11.0246C106.368 8.27065 107.689 5.79916 110.207 3.61013C113.196 1.00625 117.275 -0.176536 122.445 0.0529589C125.318 0.18536 129.122 0.944459 133.849 2.33026C136.057 1.3858 138.584 0.979766 141.448 1.11217C143.576 1.20926 145.368 1.57998 146.849 2.21551C148.321 2.85103 149.039 3.57483 149.003 4.38689L148.995 4.36041ZM141.2 19.0834C141.253 17.9624 140.845 17.0179 139.994 16.25C139.134 15.4821 138.025 15.0584 136.668 14.9966C133.308 14.8466 129.956 16.0823 126.621 18.7127C123.287 21.3431 121.549 24.1058 121.416 26.9922C121.381 27.8307 121.593 28.6957 122.072 29.596C122.968 29.8079 123.801 29.9315 124.573 29.9668C128.262 30.1345 131.933 29.0311 135.569 26.6479C139.205 24.2647 141.085 21.7491 141.209 19.0834H141.2ZM148.507 4.28979C148.533 3.68075 147.913 3.11584 146.645 2.59506C145.377 2.06545 143.904 1.76535 142.237 1.69473C139.941 1.58881 137.821 1.99484 135.888 2.904C139.967 4.43102 143.417 5.26073 146.246 5.39314C147.718 5.46375 148.471 5.10185 148.507 4.30745V4.28979Z" fill="white"/>
<path d="M157.348 27.2305C157.304 27.46 156.257 28.3427 154.209 29.8785C151.939 31.5644 149.136 32.9414 145.802 34.0182L144.286 35.8189C141.289 39.3672 138.389 41.8829 135.587 43.3569C132.696 44.884 130.328 45.4665 128.484 45.1135C127.854 44.9899 127.366 44.6898 127.02 44.2131C126.675 43.7365 126.559 43.2069 126.675 42.6243C127.269 39.5526 131.437 37.0546 139.187 35.1304C139.825 34.9539 140.783 34.7156 142.051 34.4155L142.432 34.2742L147.877 27.8748C145.855 29.7549 144.419 30.9642 143.568 31.5115C142.716 32.0499 141.918 32.2529 141.182 32.1117C140.553 31.9881 140.056 31.6174 139.692 30.9907C139.329 30.364 139.214 29.6931 139.355 28.9782C139.524 28.1043 140.331 26.8509 141.776 25.2092L146.476 19.9219C146.813 20.0543 147.221 20.1603 147.682 20.2485C148.081 20.328 148.64 20.3809 149.376 20.4074L143.417 26.8774C141.723 28.7134 140.819 29.9491 140.694 30.5935C140.561 31.282 140.81 31.688 141.439 31.8027C143.098 32.1205 146.21 29.6843 150.786 24.4854L153.597 21.2901C153.934 21.4225 154.359 21.5284 154.865 21.6255C155.282 21.7049 155.805 21.7491 156.443 21.7579C153.96 24.4059 150.52 28.3338 146.139 33.5328C148.205 32.9326 149.988 32.1911 151.495 31.3173C153.003 30.4434 154.759 29.1371 156.754 27.3982C157.02 27.1599 157.188 27.0539 157.25 27.0628C157.339 27.0804 157.383 27.1334 157.366 27.2305H157.348ZM142.122 34.6273C141.847 34.7156 140.898 34.9892 139.267 35.4394C131.614 37.5578 127.517 39.9939 126.985 42.7479C126.763 43.8954 127.295 44.5927 128.59 44.8398C130.222 45.1488 132.013 44.5839 133.964 43.1363C135.915 41.6887 138.504 38.9877 141.741 35.0421L142.131 34.6449L142.122 34.6273Z" fill="white"/>
<path d="M168.69 30.717C168.681 30.7612 168.486 30.9201 168.122 31.1937L166.819 32.1381C162.633 35.1216 159.432 36.3132 157.197 35.7042C156.142 35.4129 155.353 34.795 154.847 33.8417C154.342 32.8884 154.244 31.838 154.555 30.6994C155.299 27.9984 157.844 26.136 162.199 25.1121C164.486 24.5736 166.26 24.4765 167.51 24.8208C168.051 24.9708 168.477 25.2533 168.769 25.6858C169.062 26.1095 169.151 26.5597 169.018 27.0275C168.716 28.1132 167.759 28.837 166.136 29.2077C164.513 29.5784 161.941 29.6402 158.447 29.4019C156.993 30.6729 156.124 31.8204 155.84 32.8531C155.486 34.1418 156.009 34.9804 157.41 35.3687C159.795 36.0219 163.351 34.5037 168.087 30.8053C168.335 30.6111 168.521 30.5317 168.636 30.567C168.69 30.6023 168.707 30.6553 168.69 30.7259V30.717ZM167.927 26.0212C168.06 25.5446 167.865 25.2268 167.333 25.0856C166.535 24.8649 165.329 25.1297 163.724 25.88C162.119 26.6303 160.443 27.7071 158.705 29.1282C161.028 29.1635 163.085 28.8811 164.877 28.2809C166.659 27.6806 167.679 26.9304 167.927 26.03V26.0212Z" fill="white"/>
<path d="M185.964 19.9396L170.41 31.9616C172.716 30.4081 174.383 29.4107 175.411 28.9605C176.44 28.5192 177.291 28.4221 177.983 28.6692C178.808 28.9605 179.357 29.5431 179.641 30.3905C179.925 31.2467 179.881 32.1735 179.517 33.1885C178.719 35.404 176.52 37.0723 172.92 38.1933C170.233 39.0318 168.078 39.1642 166.446 38.5728C165.684 38.2992 165.16 37.7873 164.894 37.037C164.628 36.2867 164.655 35.4482 164.992 34.5302C165.391 33.4357 166.703 32.0057 168.929 30.2581L183.348 18.951C183.703 19.207 184.111 19.4188 184.563 19.5865C184.917 19.7101 185.379 19.8337 185.955 19.9396H185.964ZM178.524 30.9024C178.879 29.9226 178.648 29.2783 177.823 28.987C176.75 28.5986 174.276 29.7108 170.41 32.3059C167.51 34.2477 165.896 35.6688 165.568 36.578C165.284 37.3548 165.533 37.8844 166.295 38.158C167.617 38.6346 169.842 37.9461 172.964 36.0925C176.085 34.2389 177.939 32.5089 178.524 30.9024Z" fill="white"/>
<path d="M192.375 41.2738C192.322 41.3886 191.648 41.7063 190.371 42.2183C188.731 42.8979 187.436 43.0127 186.487 42.5714C185.414 42.0682 185.166 41.1944 185.751 39.9498C185.937 39.5526 186.256 39.0936 186.718 38.5728C185.458 38.9259 184.368 39.3584 183.454 39.8527C182.532 40.347 180.838 41.4504 178.355 43.1363C177.628 42.7302 177.211 42.4919 177.078 42.4301C177.025 42.4036 176.573 42.2271 175.748 41.9094L181.894 37.9285C184.971 35.9337 186.664 34.592 186.984 33.9212C187.17 33.524 187.099 33.2503 186.771 33.1003C185.982 32.7295 183.818 33.5681 180.297 35.6247C180.076 35.7659 179.916 35.8101 179.819 35.7571C179.765 35.713 179.756 35.66 179.792 35.5894C179.836 35.5276 179.898 35.4835 179.96 35.457L180.59 35.1039C184.146 33.2327 186.31 32.4824 187.09 32.8531C188.225 33.3827 188.447 34.3801 187.755 35.8277C187.241 36.9134 185.982 38.0785 183.969 39.3231C185.104 38.82 186.132 38.4669 187.055 38.2374C188.19 37.24 189.351 36.4986 190.548 36.0307C191.746 35.5629 192.668 35.4747 193.306 35.7748C193.741 35.9778 193.874 36.2691 193.696 36.6574C193.377 37.3371 191.932 37.8314 189.378 38.1668C188.97 38.2198 188.367 38.2904 187.569 38.3787L187.214 38.4669C186.709 39.023 186.354 39.5085 186.159 39.9322C185.6 41.1149 185.76 41.9182 186.656 42.333C187.764 42.8538 189.396 42.5096 191.568 41.3003C192.003 41.1238 192.251 41.0532 192.322 41.0796C192.411 41.1238 192.428 41.1856 192.393 41.265L192.375 41.2738Z" fill="white"/>
<path d="M203.885 48.9972C203.752 49.2091 203.052 49.4562 201.784 49.7475C199.886 50.18 198.45 50.0829 197.465 49.4739C197.057 49.2179 196.738 48.909 196.516 48.5559C193.209 49.9329 190.788 50.1359 189.254 49.1738C188.456 48.6795 187.986 47.9292 187.835 46.9229C187.684 45.9167 187.897 44.9634 188.465 44.0542C189.741 42.0241 192.313 40.9031 196.179 40.6824C198.902 40.5236 200.87 40.8237 202.085 41.5916C203.229 42.3066 203.415 43.2687 202.644 44.4779C201.686 45.9961 199.735 47.3201 196.782 48.4588C196.951 48.7854 197.199 49.0502 197.527 49.2532C198.121 49.6239 198.99 49.7828 200.143 49.7298C201.287 49.6769 202.36 49.4209 203.353 48.9531C203.619 48.856 203.779 48.8383 203.85 48.8736C203.903 48.909 203.912 48.9531 203.877 49.0061L203.885 48.9972ZM202.334 44.319C203.008 43.251 202.857 42.4125 201.89 41.8123C200.684 41.062 198.494 41.2915 195.31 42.5007C192.127 43.71 190.043 45.1046 189.059 46.6758C188.482 47.5849 188.633 48.3176 189.511 48.856C190.939 49.7475 193.244 49.5533 196.419 48.2646C196.304 47.6026 196.383 47.0465 196.667 46.5963C197.075 45.952 197.749 45.4489 198.698 45.0781C199.647 44.7163 200.365 44.6898 200.853 44.9899C201.065 45.1223 201.128 45.3429 201.039 45.6607C201.544 45.3341 201.97 44.884 202.334 44.319Z" fill="white"/>
<path d="M218.508 63.2171C218.393 63.3407 217.613 63.4378 216.176 63.5084C214.216 63.6231 212.868 63.3407 212.123 62.6434C211.618 62.1755 211.458 61.5047 211.627 60.6397C209.295 61.0899 207.557 61.284 206.413 61.2311C205.269 61.1781 204.364 60.8427 203.717 60.2337C203.132 59.6864 202.839 59.0421 202.812 58.2918C202.795 57.5415 203.052 56.8795 203.584 56.3058C204.036 55.8291 204.728 55.3966 205.668 55.0171C201.606 55.9174 199.079 55.9086 198.095 54.9906C197.607 54.5316 197.377 53.949 197.421 53.2341C197.456 52.5191 197.74 51.8924 198.263 51.3363C198.875 50.692 200.055 50.1094 201.81 49.5886L209.162 47.4525C209.543 47.9557 209.844 48.3087 210.057 48.5117C210.252 48.6971 210.66 49.0061 211.299 49.4474L201.456 52.1395C199.913 52.5544 198.92 52.9869 198.494 53.4371C198.015 53.949 198.006 54.4257 198.476 54.8582C198.99 55.3348 200.294 55.4849 202.387 55.2995C204.48 55.1142 206.829 54.6463 209.437 53.8784L214.447 52.3779C215.005 53.0134 215.369 53.4018 215.529 53.5518C215.928 53.9225 216.282 54.1962 216.584 54.3815L207.583 56.8001C205.588 57.3473 204.355 57.8681 203.903 58.3536C203.38 58.9096 203.407 59.4569 203.992 60.0042C205.153 61.0899 207.716 61.1869 211.689 60.3043C212.017 59.8188 212.274 59.4746 212.469 59.2715C213.418 58.2565 214.731 57.5062 216.389 57.0031C218.047 56.5088 219.173 56.5353 219.767 57.0825C220.033 57.3297 219.998 57.6298 219.661 57.974C218.765 58.9273 216.185 59.8011 211.928 60.5867C211.733 61.3635 211.866 61.9725 212.336 62.4139C213.196 63.2171 214.97 63.4289 217.666 63.0494C218.153 62.9876 218.437 62.9964 218.517 63.067C218.553 63.1023 218.553 63.1465 218.517 63.1994L218.508 63.2171Z" fill="white"/>
<path d="M85.4577 51.4069C89.6255 56.2528 97.0743 55.2642 102.821 54.7787C109.081 54.152 115.244 52.9781 121.62 53.1987C125.726 53.3576 130.674 54.3374 132.847 58.2123C130.124 54.9376 125.602 54.5316 121.602 54.6022C112.203 54.461 90.9557 61.0016 85.4577 51.3981V51.4069Z" fill="#FAABE5"/>
<path d="M22.6835 88.744C22.6835 88.744 24.2885 88.4616 24.2885 86.5462V73.7386C24.2885 72.5205 23.6767 71.9909 23.2156 71.7349H22.9141C20.706 71.7349 20.706 76.519 20.706 76.519H20.4488V71.2759H30.1589V76.519H29.9018C29.9018 76.519 29.9018 71.7349 27.7115 71.7349H27.41C26.9311 71.9909 26.3458 72.5205 26.3458 73.7386V86.5462C26.3458 88.4704 27.9243 88.744 27.9243 88.744V89H22.6835V88.744Z" fill="white"/>
<path d="M51.5034 71.5319C51.5034 71.5319 49.925 71.5848 49.925 73.3061V86.9698C49.925 88.6646 51.5034 88.744 51.5034 88.744V89H46.1119V88.744C46.1119 88.744 47.6903 88.6911 47.6903 86.9698V78.0637H42.7333V86.9698C42.7333 88.6646 44.3117 88.744 44.3117 88.744V89H38.9202V88.744C38.9202 88.744 40.4986 88.6911 40.4986 86.9698V73.3061C40.4986 71.6113 38.9202 71.5319 38.9202 71.5319V71.2759H44.3117V71.5319C44.3117 71.5319 42.7333 71.5848 42.7333 73.4296V77.6047H47.7169V74.7183H47.6903V73.2972C47.6903 71.6025 46.1119 71.5231 46.1119 71.5231V71.2671H51.5034V71.5319Z" fill="white"/>
<path d="M67.0396 80.3145L64.5478 80.288L66.5784 80.9677L70.294 86.8374C71.4645 88.6822 72.6351 88.7352 72.6351 88.7352V88.9912H68.9461L64.0866 80.288L64.06 86.5373C64.0866 88.488 65.6651 88.7352 65.6651 88.7352V88.9912H60.2735V88.7352C60.4243 88.7087 61.7012 88.4351 61.852 86.8639V73.0501C61.7012 71.6113 60.2735 71.5319 60.2735 71.5319V71.2759H65.9932C70.1344 71.2759 71.3315 73.8357 71.4113 75.7069C71.4113 75.7069 71.6419 80.3145 67.0396 80.3145ZM69.3008 75.5834V75.5304C69.3008 71.7084 65.6917 71.7084 65.6917 71.7084H64.0689V79.9085H66.0553C69.5136 79.9085 69.3097 75.5834 69.3097 75.5834H69.3008Z" fill="white"/>
<path d="M81.0948 88.744C81.0948 88.744 82.6733 88.488 82.6733 86.5462V73.7386C82.6733 71.7172 81.0948 71.5407 81.0948 71.5407V71.2847H91.7006V76.5278H91.4434C91.4434 76.5278 91.4434 71.7437 89.2531 71.7437H84.9079V77.64H88.3397C89.6876 77.64 89.7142 74.224 89.7142 74.224H89.9714V81.5149H89.7142C89.7142 81.5149 89.8383 78.099 88.3663 78.099H84.9079V88.5498H89.2531C91.4434 88.5498 91.4434 83.7657 91.4434 83.7657H91.7006V89.0088H81.0948V88.744Z" fill="white"/>
<path d="M100.515 88.744C100.515 88.744 102.138 88.4616 102.501 86.5462L105.809 73.7386C106.093 72.3439 105.33 71.8143 104.896 71.6378C104.692 71.5584 104.568 71.5407 104.568 71.5407L104.488 71.2847H109.879L109.959 71.5407C109.959 71.5407 108.434 71.7967 108.966 73.7386L112.398 86.5462C112.93 88.4704 114.588 88.744 114.588 88.744L114.668 89H109.4L109.321 88.744C109.321 88.744 110.846 88.4616 110.314 86.5462L109.454 82.9802H104.089L103.175 86.5462C102.847 88.4704 104.372 88.744 104.372 88.744L104.346 89H100.48L100.533 88.744H100.515ZM109.232 82.4417L106.563 72.953L104.248 82.4153L109.232 82.4417Z" fill="white"/>
<path d="M129.184 71.2847C134.141 71.2847 135.746 75.4598 135.746 79.8378V79.8643C135.746 84.2424 134.496 89 130.231 89H123.34V88.744C123.34 88.744 124.768 88.6911 124.919 87.2258V73.0501C124.768 71.6113 123.34 71.5319 123.34 71.5319V71.2759H129.184V71.2847ZM129.441 88.541C133.84 88.541 133.556 80.544 133.556 80.544V80.5175C133.556 71.4348 129.078 71.7084 129.078 71.7084H127.118L127.145 88.541H129.441Z" fill="white"/>
<path d="M143.798 71.2847H149.19V71.5407C149.19 71.5407 147.611 71.8232 147.611 73.7386V86.5462C147.611 88.4969 149.19 88.744 149.19 88.744V89H143.798V88.744C143.798 88.744 145.377 88.488 145.377 86.5462V73.7386C145.377 71.8143 143.798 71.5407 143.798 71.5407V71.2847Z" fill="white"/>
<path d="M170.135 86.9698C170.135 88.6646 171.714 88.744 171.714 88.744V89H166.322V88.744C166.322 88.744 167.927 88.6911 167.927 86.9698V86.5109L161.853 74.0563V86.961C161.853 88.6557 163.431 88.7352 163.431 88.7352V88.9912H158.04V88.7352C158.04 88.7352 159.618 88.6822 159.618 86.961V73.2972C159.618 71.6025 158.04 71.5231 158.04 71.5231V71.2671H163.431V71.5231C163.431 71.5231 162.207 71.576 161.906 72.7411L167.927 85.0368V73.2972C167.927 71.6025 166.322 71.5231 166.322 71.5231V71.2671H171.714V71.5231C171.714 71.5231 170.135 71.576 170.135 73.2972V86.9698Z" fill="white"/>
<path d="M192.428 82.1151V89H192.171C192.171 89 192.091 86.3167 191.409 87.1287C190.389 88.1703 189.014 88.9735 186.886 88.9735C179.517 88.9735 179.996 80.2174 179.996 80.2174C179.996 80.2174 179.561 71.2847 186.886 71.2847C188.872 71.2847 190.291 71.9644 191.284 72.953C191.923 73.4296 192.1 71.3112 192.1 71.3112H192.357V78.249H191.896C191.816 77.0839 191.639 75.5127 191.214 74.4006C190.548 72.7853 188.748 71.7437 186.895 71.7437C181.938 71.7437 182.266 80.1203 182.266 80.1203C182.266 80.1203 181.858 88.5234 186.895 88.5234C188.19 88.5234 189.741 87.8437 190.681 86.3255C191.116 85.6458 191.391 84.8867 191.497 84.0747C191.267 83.9776 191.036 83.8187 190.814 83.6157C188.784 81.868 185.396 79.0081 183.72 79.9438C183.72 79.9438 184.784 78.7522 186.265 78.7257C188.58 78.6727 191.453 81.4884 192.34 82.1151C192.366 82.1416 192.393 82.1681 192.42 82.1946L192.446 82.1151H192.428Z" fill="white"/>
<path d="M218.313 80.4027C219.802 80.4027 221.009 79.8258 221.009 79.114C221.009 78.4023 219.802 77.8253 218.313 77.8253C216.824 77.8253 215.617 78.4023 215.617 79.114C215.617 79.8258 216.824 80.4027 218.313 80.4027Z" fill="white"/>
<path d="M2.69577 80.4027C4.1846 80.4027 5.39154 79.8258 5.39154 79.114C5.39154 78.4023 4.1846 77.8253 2.69577 77.8253C1.20694 77.8253 0 78.4023 0 79.114C0 79.8258 1.20694 80.4027 2.69577 80.4027Z" fill="white"/>
</g>
</svg>
