<svg width="1353" height="307" viewBox="0 0 1353 307" fill="none" xmlns="http://www.w3.org/2000/svg">
<path d="M1327.99 306.67C1322.07 306.67 1316.12 304.58 1311.35 300.32C1199.59 200.56 1073.27 129.34 935.89 88.64C514.58 -36.2 142.66 176.44 38.7102 244.58C27.1602 252.15 11.6702 248.92 4.10022 237.38C-3.46978 225.84 -0.249781 210.34 11.3002 202.77C105.55 140.98 219.23 87.74 331.39 52.85C426.42 23.28 522.09 5.92999 615.74 1.27999C730.14 -4.40001 842.64 8.85999 950.11 40.7C1094.6 83.52 1227.35 158.32 1344.65 263.02C1354.95 272.21 1355.85 288.02 1346.65 298.32C1341.71 303.85 1334.86 306.67 1327.99 306.67Z" fill="#FAABE5"/>
<path d="M236.83 108.29L237.42 109.72C238.02 111.19 237.86 112.34 236.95 113.18C238.27 113.06 239.24 113.76 239.87 115.3L240.51 116.85C241.5 119.26 240.71 120.98 238.15 122.03L233.08 124.11L226.58 108.27L231.51 106.25C234.07 105.2 235.84 105.88 236.83 108.28V108.29ZM232.06 108.79L230.33 109.5L232.08 113.78L233.81 113.07C234.83 112.65 235.14 111.97 234.75 111.01L234.16 109.58C233.77 108.64 233.07 108.38 232.06 108.79ZM237.71 117.82L237.07 116.27C236.68 115.31 235.97 115.04 234.96 115.46L233.09 116.23L234.89 120.63L236.76 119.86C237.78 119.44 238.09 118.76 237.71 117.82Z" fill="white"/>
<path d="M237.42 103.84L245.06 100.78L246.04 103.22L241.19 105.16L242.87 109.36L247.07 107.68L248.05 110.12L243.85 111.8L245.61 116.19L250.46 114.25L251.44 116.69L243.8 119.75L237.43 103.85L237.42 103.84Z" fill="white"/>
<path d="M259.65 113.46L257.33 109.78L253.74 111.18L254.55 115.45L251.87 116.5L248.94 99.26L252.83 97.74L262.35 112.41L259.65 113.47V113.46ZM253.25 108.63L255.93 107.58L251.81 101.03L253.25 108.63Z" fill="white"/>
<path d="M263.38 93.68L266.18 92.61L270.84 104.85C271.3 106.06 271.29 107.18 270.8 108.19C270.31 109.21 269.32 110 267.84 110.56C266.35 111.13 265.09 111.19 264.06 110.75C263.03 110.31 262.28 109.49 261.82 108.27L257.16 96.03L259.96 94.96L264.57 107.06C264.97 108.12 265.74 108.43 266.88 108C268.02 107.57 268.38 106.82 267.98 105.76L263.37 93.66L263.38 93.68Z" fill="white"/>
<path d="M275.96 88.98L276.87 91.44L273.89 92.55L278.94 106.14L276.1 107.19L271.05 93.6L268.07 94.71L267.16 92.25L275.95 88.99L275.96 88.98Z" fill="white"/>
<path d="M288.4 102.69L285.56 103.72L283.69 98.55L275.85 89.03L278.74 87.98L280.96 90.74C282.18 92.3 283.22 93.73 284.06 95.04C283.88 93.32 283.75 91.54 283.68 89.73L283.6 86.22L286.44 85.19L286.52 97.52L288.39 102.69H288.4Z" fill="white"/>
<path d="M291.96 87.25C291.55 86.07 291.62 85.02 292.18 84.1C292.74 83.18 293.76 82.46 295.23 81.95C296.7 81.44 297.9 81.19 298.82 81.2L299.77 83.91C298.73 83.87 297.59 84.06 296.35 84.5C295.11 84.93 294.65 85.62 294.98 86.57L295.2 87.21C295.37 87.68 295.58 88.02 295.84 88.22C296.1 88.42 296.53 88.56 297.13 88.66L300.38 89.25C301.9 89.5 302.9 90.33 303.4 91.75L303.89 93.14C304.31 94.34 304.2 95.41 303.56 96.37C302.92 97.33 301.8 98.08 300.2 98.64C298.6 99.2 297.33 99.45 296.41 99.38L295.45 96.64C296.61 96.71 297.82 96.53 299.09 96.08C300.65 95.54 301.26 94.78 300.92 93.8L300.71 93.19C300.57 92.78 300.37 92.49 300.13 92.32C299.88 92.15 299.5 92.02 298.98 91.94L295.89 91.43C294.15 91.14 293.01 90.24 292.48 88.73L291.97 87.27L291.96 87.25Z" fill="white"/>
<path d="M301.02 80.08L308.81 77.43L309.66 79.92L304.71 81.6L306.17 85.88L310.45 84.42L311.3 86.9L307.02 88.36L308.54 92.83L313.49 91.15L314.34 93.63L306.55 96.28L301.03 80.07L301.02 80.08Z" fill="white"/>
<path d="M316.64 86.07L318.67 92.19L315.82 93.13L310.44 76.87L315.23 75.28C316.51 74.86 317.61 74.84 318.52 75.23C319.43 75.62 320.08 76.4 320.46 77.55L321.38 80.33C321.99 82.17 321.71 83.54 320.53 84.45L325.21 90.01L322.08 91.05L317.8 85.67L316.64 86.05V86.07ZM314.09 78.38L315.87 83.77L317.53 83.22C318.05 83.05 318.39 82.81 318.54 82.5C318.69 82.2 318.68 81.78 318.51 81.26L317.67 78.72C317.37 77.8 316.72 77.51 315.74 77.83L314.08 78.38H314.09Z" fill="white"/>
<path d="M327.8 71.21L330.78 70.25L332.75 87.6L328.75 88.88L320.21 73.64L323.14 72.7L326.87 79.59C327.27 80.35 327.86 81.52 328.64 83.09C329.42 84.66 329.86 85.53 329.96 85.69C329.93 85.37 329.76 84.33 329.46 82.57C329.16 80.81 328.96 79.62 328.86 78.98L327.81 71.2L327.8 71.21Z" fill="white"/>
<path d="M331.9 69.91L334.79 69L339.92 85.34L337.03 86.25L331.9 69.91Z" fill="white"/>
<path d="M337.92 72.05C337.55 70.86 337.68 69.8 338.29 68.88C338.9 67.96 340.04 67.24 341.7 66.74C342.78 66.41 343.79 66.23 344.73 66.2L345.54 68.83C344.5 68.85 343.55 69 342.68 69.26C341.81 69.53 341.26 69.83 341.03 70.17C340.8 70.51 340.75 70.92 340.9 71.4L343.52 79.93C343.82 80.9 344.66 81.18 346.05 80.75C347.21 80.39 348.16 79.96 348.9 79.46L349.7 82.06C348.91 82.56 347.94 82.99 346.77 83.35C343.5 84.35 341.48 83.6 340.71 81.08L337.94 72.05H337.92Z" fill="white"/>
<path d="M346.35 65.45L354.23 63.1L354.98 65.62L349.97 67.11L351.26 71.45L355.6 70.16L356.35 72.68L352.01 73.97L353.36 78.5L358.37 77.01L359.12 79.53L351.24 81.88L346.34 65.47L346.35 65.45Z" fill="white"/>
<path d="M356.19 66.48C355.84 65.28 355.97 64.23 356.58 63.35C357.19 62.46 358.24 61.8 359.74 61.37C361.24 60.94 362.45 60.75 363.37 60.81L364.17 63.57C363.13 63.47 361.98 63.6 360.72 63.97C359.46 64.34 358.96 65 359.24 65.96L359.43 66.61C359.57 67.09 359.76 67.44 360.02 67.65C360.27 67.86 360.69 68.03 361.29 68.16L364.5 68.92C366 69.25 366.96 70.13 367.38 71.58L367.79 73C368.14 74.22 367.97 75.29 367.29 76.2C366.6 77.12 365.44 77.82 363.81 78.29C362.18 78.76 360.9 78.94 359.98 78.83L359.17 76.04C360.32 76.17 361.54 76.06 362.84 75.68C364.42 75.22 365.07 74.5 364.79 73.5L364.61 72.88C364.49 72.46 364.31 72.16 364.08 71.98C363.84 71.8 363.47 71.65 362.95 71.54L359.89 70.86C358.16 70.47 357.08 69.51 356.63 67.98L356.2 66.49L356.19 66.48Z" fill="white"/>
<path d="M377.66 56.45L378.36 58.98L375.3 59.83L379.17 73.8L376.25 74.61L372.38 60.64L369.32 61.49L368.62 58.96L377.65 56.46L377.66 56.45Z" fill="white"/>
<path d="M385.76 54.27L388.71 53.48L393.13 70.02L390.18 70.81L388.35 63.98L384.32 65.06L386.15 71.89L383.23 72.67L378.81 56.13L381.73 55.35L383.63 62.47L387.66 61.39L385.76 54.27Z" fill="white"/>
<path d="M402.25 67.68L400.39 63.74L396.66 64.7L396.95 69.04L394.17 69.75L393.35 52.28L397.39 51.24L405.06 66.95L402.25 67.67V67.68ZM396.48 62.11L399.26 61.4L395.97 54.4L396.48 62.12V62.11Z" fill="white"/>
<path d="M409.97 48.1L410.6 50.65L407.52 51.41L411 65.49L408.06 66.22L404.58 52.14L401.5 52.9L400.87 50.35L409.97 48.1Z" fill="white"/>
<path d="M415.3 46.82L420.61 45.58C421.91 45.28 422.99 45.36 423.84 45.84C424.69 46.32 425.26 47.15 425.55 48.35L427.68 57.43C428.28 60.01 427.28 61.61 424.67 62.22L419.22 63.5L415.32 46.83L415.3 46.82ZM422.65 49.13C422.43 48.21 421.82 47.86 420.82 48.1L418.8 48.57L421.54 60.28L423.56 59.81C424.57 59.57 424.95 58.94 424.7 57.9L422.65 49.14V49.13Z" fill="white"/>
<path d="M426.73 44.16L434.76 42.36L435.33 44.92L430.23 46.06L431.22 50.48L435.64 49.49L436.21 52.05L431.79 53.04L432.82 57.65L437.92 56.51L438.49 59.07L430.46 60.87L426.71 44.16H426.73Z" fill="white"/>
<path d="M436.43 42L444.25 40.31L444.8 42.88L439.94 43.93L441 48.87L445.55 47.89L446.11 50.5L441.56 51.48L442.99 58.1L440.03 58.74L436.42 42H436.43Z" fill="white"/>
<path d="M445.61 40.03L448.57 39.41L452.07 56.17L449.11 56.79L445.61 40.03Z" fill="white"/>
<path d="M458.06 37.48L460.98 36.89L464.35 53.68L461.38 54.28C457.75 48.64 455.66 45.34 455.11 44.41C454.56 43.47 454.27 42.96 454.21 42.87C454.21 42.9 454.32 43.2 454.52 43.75C455.03 45.19 455.51 47.01 455.95 49.2L457.14 55.13L454.25 55.71L450.88 38.92L453.89 38.31C457.02 43.14 458.84 45.99 459.35 46.85C459.86 47.72 460.25 48.38 460.5 48.85C460.76 49.32 460.91 49.59 460.96 49.66C460.95 49.6 460.84 49.29 460.65 48.75C460.11 47.16 459.63 45.33 459.21 43.25L458.05 37.47L458.06 37.48Z" fill="white"/>
<path d="M463.3 36.45L471.38 34.91L471.87 37.49L466.74 38.47L467.59 42.91L472.03 42.06L472.52 44.64L468.08 45.49L468.96 50.13L474.09 49.15L474.58 51.73L466.5 53.27L463.29 36.45H463.3Z" fill="white"/>
<path d="M486.04 49.66L483.06 50.19L482.1 44.77L476.01 34.04L479.04 33.5L480.76 36.6C481.7 38.35 482.47 39.94 483.08 41.37C483.2 39.64 483.37 37.87 483.61 36.07L484.14 32.6L487.12 32.07L485.09 44.24L486.05 49.66H486.04Z" fill="white"/>
<path d="M488.54 35.92C488.33 34.64 488.56 33.55 489.24 32.65C489.92 31.75 491.05 31.17 492.62 30.91C494.2 30.65 495.46 30.83 496.4 31.46C497.34 32.09 497.92 33.04 498.13 34.33L499.62 43.28C499.83 44.56 499.6 45.65 498.91 46.55C498.22 47.45 497.09 48.03 495.51 48.3C493.93 48.56 492.68 48.38 491.74 47.75C490.81 47.12 490.23 46.16 490.02 44.88L488.53 35.93L488.54 35.92ZM495.2 34.96C495.01 33.84 494.31 33.39 493.08 33.59C491.85 33.79 491.34 34.46 491.52 35.57L492.96 44.23C493.15 45.35 493.85 45.8 495.08 45.6C496.3 45.4 496.82 44.73 496.64 43.62L495.2 34.96Z" fill="white"/>
<path d="M506 29.01L508.96 28.55L510.98 41.49C511.18 42.78 510.94 43.86 510.25 44.75C509.56 45.64 508.43 46.21 506.86 46.46C505.29 46.71 504.04 46.51 503.12 45.87C502.2 45.23 501.64 44.27 501.44 42.98L499.42 30.04L502.38 29.58L504.38 42.37C504.55 43.49 505.24 43.96 506.44 43.77C507.64 43.58 508.16 42.93 507.98 41.81L505.98 29.02L506 29.01Z" fill="white"/>
<path d="M526.85 33.02L527.21 35.57L526.05 35.74L526.54 39.18C526.72 40.48 526.49 41.57 525.85 42.43C525.21 43.3 524.1 43.84 522.53 44.06C520.96 44.28 519.73 44.06 518.84 43.42C517.95 42.77 517.41 41.8 517.23 40.49L516.95 38.51C516.74 37.04 517.21 36.02 518.36 35.43C517.13 35.2 516.41 34.34 516.2 32.86L516 31.42C515.82 30.17 516.12 29.13 516.89 28.3C517.66 27.48 518.92 26.94 520.69 26.69C521.98 26.51 523.04 26.49 523.86 26.65L524.26 29.45C523.46 29.26 522.52 29.24 521.44 29.39C520.36 29.54 519.67 29.77 519.37 30.07C519.07 30.37 518.95 30.78 519.03 31.29L519.18 32.38C519.26 32.96 519.44 33.37 519.72 33.6C520 33.84 520.43 33.92 521 33.84L522.86 33.58L522.64 32.02L525.49 31.62L525.71 33.18L526.87 33.02H526.85ZM523.68 39.5L523.2 36.13L521.34 36.39C520.25 36.54 519.78 37.17 519.94 38.25L520.19 39.98C520.35 41.1 521.01 41.58 522.17 41.42C523.33 41.26 523.84 40.61 523.68 39.49V39.5Z" fill="white"/>
<path d="M535.67 35.6L536.48 42L533.5 42.38L531.35 25.39L536.36 24.76C537.7 24.59 538.78 24.79 539.6 25.35C540.42 25.91 540.9 26.79 541.06 28L541.43 30.9C541.67 32.82 541.13 34.11 539.81 34.78L543.34 41.14L540.07 41.55L536.9 35.45L535.68 35.6H535.67ZM534.65 27.56L535.36 33.19L537.1 32.97C537.65 32.9 538.02 32.73 538.23 32.46C538.44 32.19 538.51 31.78 538.44 31.24L538.1 28.59C537.98 27.63 537.41 27.22 536.38 27.35L534.64 27.57L534.65 27.56Z" fill="white"/>
<path d="M542.75 23.96L550.92 23.01L551.22 25.62L546.03 26.22L546.55 30.71L551.04 30.19L551.34 32.8L546.85 33.32L547.4 38.01L552.59 37.41L552.89 40.02L544.72 40.97L542.74 23.96H542.75Z" fill="white"/>
<path d="M552.27 26.68C552.14 25.44 552.45 24.43 553.2 23.66C553.96 22.89 555.11 22.43 556.66 22.26C558.21 22.09 559.43 22.12 560.33 22.34L560.64 25.2C559.64 24.92 558.48 24.85 557.17 24.99C555.86 25.13 555.26 25.7 555.37 26.69L555.44 27.36C555.49 27.86 555.63 28.23 555.84 28.49C556.05 28.74 556.44 28.98 557 29.21L560.03 30.52C561.45 31.11 562.24 32.14 562.4 33.64L562.56 35.11C562.69 36.37 562.34 37.39 561.51 38.18C560.67 38.97 559.41 39.45 557.72 39.63C556.03 39.81 554.74 39.76 553.86 39.49L553.55 36.61C554.66 36.94 555.88 37.04 557.23 36.9C558.87 36.72 559.64 36.12 559.53 35.1L559.46 34.45C559.41 34.02 559.29 33.69 559.09 33.47C558.89 33.25 558.55 33.04 558.05 32.84L555.16 31.64C553.53 30.96 552.63 29.82 552.46 28.23L552.29 26.69L552.27 26.68Z" fill="white"/>
<path d="M569.23 21.12L572.22 20.83L573.48 33.87C573.6 35.16 573.3 36.24 572.56 37.09C571.82 37.94 570.66 38.44 569.08 38.59C567.5 38.74 566.26 38.47 565.38 37.78C564.5 37.09 564 36.09 563.87 34.8L562.61 21.76L565.6 21.47L566.85 34.36C566.96 35.49 567.62 35.99 568.83 35.88C570.04 35.77 570.59 35.14 570.48 34.01L569.23 21.12Z" fill="white"/>
<path d="M574.44 20.64L577.45 20.38L578.71 34.9L583.52 34.48L583.74 37.02L575.92 37.7L574.44 20.64Z" fill="white"/>
<path d="M591.57 19.23L591.77 21.85L588.6 22.1L589.73 36.56L586.71 36.8L585.58 22.34L582.41 22.59L582.21 19.97L591.56 19.24L591.57 19.23Z" fill="white"/>
<path d="M592.22 22.99C592.13 21.74 592.48 20.75 593.27 20.01C594.06 19.27 595.22 18.85 596.78 18.74C598.33 18.63 599.55 18.71 600.44 18.96L600.64 21.83C599.65 21.51 598.5 21.4 597.18 21.49C595.87 21.58 595.24 22.12 595.31 23.12L595.36 23.79C595.39 24.29 595.51 24.67 595.71 24.93C595.91 25.19 596.29 25.45 596.84 25.69L599.82 27.11C601.22 27.75 601.97 28.82 602.07 30.31L602.17 31.78C602.26 33.04 601.87 34.05 601 34.8C600.13 35.55 598.85 35.99 597.16 36.1C595.46 36.22 594.18 36.12 593.31 35.81L593.11 32.92C594.2 33.3 595.43 33.44 596.77 33.34C598.42 33.23 599.2 32.65 599.13 31.62L599.09 30.97C599.06 30.54 598.95 30.21 598.76 29.98C598.57 29.75 598.23 29.53 597.75 29.31L594.9 28C593.3 27.26 592.44 26.09 592.33 24.49L592.22 22.94V22.99Z" fill="white"/>
<path d="M615.32 17.75L615.47 20.37L612.3 20.55L613.1 35.03L610.08 35.2L609.28 20.72L606.11 20.9L605.96 18.28L615.32 17.76V17.75Z" fill="white"/>
<path d="M623.72 17.36L626.77 17.22L627.54 34.33L624.49 34.47L624.17 27.4L620 27.59L620.32 34.66L617.3 34.79L616.53 17.68L619.55 17.54L619.88 24.91L624.05 24.72L623.72 17.35V17.36Z" fill="white"/>
<path d="M636.95 34.01L635.98 29.76L632.13 29.89L631.47 34.19L628.6 34.29L631.58 17.06L635.75 16.92L639.84 33.92L636.94 34.02L636.95 34.01ZM632.53 27.33L635.4 27.24L633.7 19.69L632.53 27.33Z" fill="white"/>
<path d="M648.73 16.59L648.79 19.21L645.62 19.28L645.95 33.78L642.93 33.85L642.6 19.35L639.43 19.42L639.37 16.8L648.74 16.59H648.73Z" fill="white"/>
<path d="M667.39 16.41L667.5 33.53L664.6 33.55L664.55 26.45C664.54 24.77 664.64 23.07 664.87 21.37L662.12 29.14L659.62 29.16L656.74 21.43C657 22.98 657.14 24.67 657.15 26.5L657.2 33.6L654.32 33.62L654.21 16.5L657.41 16.48L660.85 25.96L664.16 16.44L667.38 16.42L667.39 16.41Z" fill="white"/>
<path d="M676.91 33.59L676.11 29.31L672.26 29.28L671.43 33.55L668.55 33.53L672.22 16.43L676.39 16.46L679.8 33.61L676.9 33.59H676.91ZM672.76 26.74L675.64 26.76L674.24 19.15L672.76 26.74Z" fill="white"/>
<path d="M681.21 16.51L684.21 16.56L683.9 33.68L680.9 33.63L681.21 16.51ZM687.78 16.63L691 16.69L687.55 25L690.94 33.81L687.61 33.75L684.39 24.99L687.77 16.62L687.78 16.63Z" fill="white"/>
<path d="M692.53 16.73L700.75 16.97L700.67 19.59L695.45 19.44L695.32 23.96L699.84 24.09L699.76 26.71L695.24 26.58L695.11 31.3L700.33 31.45L700.25 34.07L692.03 33.83L692.52 16.71L692.53 16.73Z" fill="white"/>
<path d="M711.86 34.54L708.84 34.41L709.08 28.91L705.46 17.12L708.53 17.25L709.53 20.65C710.06 22.56 710.47 24.28 710.76 25.81C711.25 24.15 711.81 22.46 712.43 20.75L713.7 17.48L716.72 17.61L712.09 29.05L711.85 34.54H711.86Z" fill="white"/>
<path d="M717.31 21.68C717.38 20.38 717.85 19.37 718.7 18.64C719.56 17.91 720.78 17.59 722.38 17.68C723.98 17.77 725.17 18.22 725.95 19.04C726.73 19.86 727.09 20.92 727.02 22.22L726.52 31.28C726.45 32.58 725.98 33.59 725.11 34.32C724.24 35.05 723.01 35.37 721.41 35.28C719.81 35.19 718.63 34.74 717.85 33.92C717.08 33.1 716.73 32.04 716.8 30.75L717.3 21.69L717.31 21.68ZM724.02 22.2C724.08 21.07 723.49 20.47 722.25 20.4C721.01 20.33 720.36 20.86 720.3 22L719.82 30.76C719.76 31.89 720.35 32.49 721.59 32.56C722.83 32.63 723.48 32.1 723.54 30.96L724.02 22.2Z" fill="white"/>
<path d="M735.87 18.76L738.86 18.96L737.99 32.03C737.9 33.33 737.43 34.33 736.56 35.05C735.69 35.77 734.47 36.08 732.88 35.97C731.29 35.86 730.12 35.4 729.37 34.57C728.61 33.74 728.28 32.68 728.37 31.38L729.24 18.31L732.23 18.51L731.37 31.43C731.29 32.56 731.86 33.17 733.08 33.25C734.3 33.33 734.94 32.81 735.01 31.67L735.87 18.75V18.76Z" fill="white"/>
<path d="M744.3 23.17C744.4 21.92 744.9 21 745.78 20.38C746.67 19.77 747.89 19.52 749.44 19.65C750.99 19.78 752.19 20.04 753.03 20.42L752.79 23.29C751.86 22.83 750.74 22.54 749.42 22.44C748.11 22.33 747.41 22.78 747.33 23.77L747.27 24.44C747.23 24.94 747.29 25.33 747.45 25.62C747.61 25.91 747.94 26.22 748.45 26.54L751.18 28.4C752.47 29.24 753.05 30.41 752.92 31.9L752.8 33.37C752.7 34.63 752.16 35.57 751.19 36.19C750.22 36.8 748.89 37.04 747.19 36.9C745.49 36.76 744.24 36.47 743.42 36.04L743.66 33.15C744.69 33.69 745.87 34.01 747.22 34.12C748.86 34.26 749.73 33.81 749.81 32.78L749.86 32.13C749.9 31.7 749.84 31.35 749.68 31.1C749.52 30.84 749.22 30.57 748.78 30.29L746.16 28.57C744.68 27.6 744.01 26.31 744.14 24.72L744.27 23.18L744.3 23.17Z" fill="white"/>
<path d="M768.65 21.53L767.02 38.58L764.13 38.3L764.8 31.23C764.96 29.55 765.24 27.88 765.63 26.21L762.11 33.66L759.62 33.42L757.54 25.44C757.64 27.01 757.6 28.7 757.43 30.53L756.76 37.6L753.9 37.33L755.53 20.28L758.72 20.58L761.18 30.36L765.44 21.22L768.65 21.53Z" fill="white"/>
<path d="M771 21.8L774.01 22.12L772.2 39.15L769.19 38.83L771 21.8Z" fill="white"/>
<path d="M776.34 22.37L779.35 22.71L777.7 37.19L782.49 37.73L782.2 40.26L774.4 39.37L776.33 22.36L776.34 22.37Z" fill="white"/>
<path d="M785.25 23.39L793.41 24.4L793.09 27L787.9 26.36L787.35 30.85L791.84 31.4L791.52 34.01L787.03 33.45L786.45 38.14L791.64 38.78L791.32 41.38L783.16 40.37L785.26 23.37L785.25 23.39Z" fill="white"/>
</svg>
