<svg width="1679" height="480" viewBox="0 0 1679 480" fill="none" xmlns="http://www.w3.org/2000/svg">
<path fill-rule="evenodd" clip-rule="evenodd" d="M659.919 311.491C439.333 356.41 234.149 423.413 113.236 471.181C93.9741 478.791 72.1903 469.345 64.5806 450.083C56.9708 430.821 66.4168 409.037 85.6788 401.427C210.263 352.208 419.659 283.877 644.953 237.999C869.262 192.322 1114.14 167.868 1307.33 210.169C1509.35 254.403 1632.86 410.439 1705.16 578.853C1777.5 747.372 1801.72 934.798 1802.04 1056.63C1802.09 1077.34 1785.35 1094.18 1764.64 1094.23C1743.93 1094.29 1727.09 1077.54 1727.04 1056.83C1726.74 942.51 1703.69 765.553 1636.24 608.438C1568.75 451.216 1459.96 320.366 1291.29 283.433C1113.79 244.568 881.489 266.371 659.919 311.491Z" fill="#FAABE5"/>
<path d="M171.499 421.843L163.505 398.686L170.655 396.111C171.657 395.752 172.534 395.564 173.263 395.574C173.993 395.575 174.636 395.823 175.173 396.315C175.72 396.809 176.187 397.632 176.591 398.806L177.072 400.192C177.346 400.986 177.485 401.759 177.491 402.501C177.497 403.244 177.371 403.877 177.121 404.42C176.861 404.962 176.489 405.337 175.973 405.549L176.015 405.666C176.715 405.471 177.344 405.487 177.901 405.721C178.448 405.955 178.922 406.338 179.307 406.857C179.692 407.377 180.006 407.976 180.231 408.641L181.533 412.418C181.95 413.634 182.178 414.671 182.207 415.517C182.237 416.364 181.99 417.078 181.476 417.672C180.961 418.266 180.053 418.79 178.748 419.263L171.493 421.882L171.499 421.843ZM170.628 406.242L172.475 405.58C172.819 405.462 173.096 405.263 173.292 405.012C173.497 404.763 173.612 404.399 173.641 403.943C173.671 403.486 173.579 402.921 173.346 402.244L172.996 401.238C172.803 400.688 172.612 400.258 172.423 399.938C172.235 399.619 171.98 399.41 171.678 399.324C171.375 399.238 170.952 399.294 170.41 399.483L168.531 400.16L170.638 406.244L170.628 406.242ZM174.434 417.256L176.387 416.549C176.804 416.402 177.119 416.209 177.331 415.981C177.544 415.752 177.659 415.449 177.678 415.061C177.698 414.673 177.603 414.188 177.399 413.585L176.17 410.04C175.896 409.247 175.513 408.778 175.009 408.651C174.505 408.525 173.967 408.563 173.372 408.774L171.712 409.374L174.434 417.256Z" fill="white"/>
<path d="M177.813 393.548L189.108 389.537L190.194 392.719L182.924 395.306L184.864 400.993L191.361 398.69L191.926 402.054L185.95 404.175L188.659 412.145L195.929 409.559L197.015 412.741L185.72 416.752L177.821 393.559L177.813 393.548Z" fill="white"/>
<path d="M197.988 412.377L194.955 387.486L199.394 385.934L211.93 407.504L207.751 408.966L205.107 404.284L205.983 404.688L200.887 406.471L201.23 405.641L202.061 410.96L197.996 412.388L197.988 412.377ZM200.645 403.447L200.121 403.127L204.666 401.531L204.303 402.167L199.156 392.123L198.878 391.42L198.585 391.526L198.791 392.249L200.655 403.448L200.645 403.447Z" fill="white"/>
<path d="M219.334 405.139C218.22 405.521 217.188 405.756 216.228 405.841C215.268 405.926 214.45 405.791 213.77 405.458C213.09 405.124 212.611 404.51 212.32 403.634L205.72 383.716L209.75 382.322L215.922 400.962C216.009 401.236 216.148 401.488 216.334 401.696C216.518 401.915 216.763 402.052 217.091 402.102C217.41 402.15 217.81 402.111 218.28 401.941C218.801 401.76 219.167 401.555 219.392 401.308C219.617 401.061 219.726 400.797 219.742 400.499C219.758 400.201 219.719 399.934 219.639 399.681L213.467 381.041L217.497 379.647L224.097 399.566C224.388 400.442 224.359 401.219 224.028 401.911C223.696 402.602 223.109 403.215 222.289 403.742C221.468 404.279 220.48 404.741 219.345 405.13L219.334 405.139Z" fill="white"/>
<path d="M224.226 380.889L220.303 382.228L219.258 379.032L231.153 374.972L232.197 378.168L228.274 379.508L234.847 399.602L230.809 400.985L224.236 380.89L224.226 380.889Z" fill="white"/>
<path d="M244.23 396.424L241.633 388.371L231.735 374.779L235.447 373.528L242.076 382.844L242.358 383.589L242.399 383.575L242.19 382.811L241.904 371.359L245.616 370.108L245.559 387.011L248.171 395.097L244.24 396.425L244.23 396.424Z" fill="white"/>
<path d="M266.239 389.366C265.149 389.722 264.103 389.985 263.1 390.153C262.098 390.322 261.247 390.273 260.555 390.018C259.854 389.761 259.384 389.219 259.114 388.396L257.447 383.12L261.319 381.342L262.592 385.374C262.731 385.827 262.978 386.145 263.327 386.318C263.676 386.491 264.224 386.454 264.993 386.2C265.491 386.035 265.847 385.838 266.079 385.612C266.31 385.387 266.429 385.124 266.451 384.847C266.475 384.56 266.426 384.232 266.306 383.853L265.505 381.325C265.292 380.651 264.942 380.097 264.463 379.673C263.985 379.25 263.295 379.045 262.405 379.06L259.594 379.115C258.389 379.123 257.461 378.932 256.8 378.541C256.139 378.15 255.627 377.361 255.253 376.181L253.707 371.285C253.361 370.18 253.371 369.269 253.754 368.565C254.128 367.86 254.77 367.266 255.662 366.79C256.553 366.313 257.554 365.894 258.666 365.521C259.736 365.172 260.718 364.94 261.631 364.838C262.545 364.736 263.322 364.814 263.972 365.083C264.622 365.352 265.065 365.88 265.312 366.659L266.979 371.935L263.139 373.828L261.93 370.026C261.683 369.247 261.389 368.781 261.056 368.63C260.724 368.48 260.206 368.511 259.509 368.747C258.792 368.989 258.33 369.3 258.124 369.679C257.917 370.069 257.952 370.686 258.217 371.538L258.911 373.729C259.09 374.307 259.391 374.794 259.813 375.199C260.226 375.602 260.767 375.805 261.427 375.814L264.572 375.77C265.855 375.764 266.843 375.954 267.531 376.359C268.221 376.755 268.752 377.547 269.126 378.726L270.686 383.665C271.025 384.749 271.037 385.643 270.722 386.357C270.397 387.069 269.842 387.667 269.05 388.138C268.259 388.61 267.328 389.02 266.259 389.369L266.239 389.366Z" fill="white"/>
<path d="M266.883 363.068L278.271 359.352L279.275 362.562L271.946 364.949L273.74 370.685L280.29 368.55L280.774 371.932L274.743 373.894L277.254 381.934L284.583 379.547L285.586 382.757L274.197 386.473L266.901 363.081L266.883 363.068Z" fill="white"/>
<path d="M280.44 358.648L288.936 355.917C290.004 355.578 290.832 355.453 291.429 355.553C292.016 355.652 292.473 355.952 292.805 356.434C293.135 356.925 293.422 357.57 293.665 358.378L295.166 363.248C295.443 364.152 295.635 365.033 295.725 365.869C295.824 366.716 295.629 367.478 295.16 368.169C294.69 368.86 293.745 369.428 292.334 369.886L288.723 371.052L291.711 380.759L287.644 382.067L280.44 358.648ZM290.01 367.117C290.632 366.921 291.026 366.6 291.199 366.175C291.363 365.748 291.32 365.12 291.071 364.291L290.244 361.609C289.933 360.599 289.631 359.992 289.336 359.787C289.042 359.582 288.579 359.572 287.957 359.768L285.499 360.558L287.739 367.845L290.01 367.117ZM297.427 379.761L290.007 370.395L292.692 369.409L293.936 369.337L294.183 369.465L300.745 377.076L297.437 379.762L297.427 379.761Z" fill="white"/>
<path d="M305.968 376.214L294.039 354.285L298.07 353.012L306.084 369.335L306.36 370.118L306.401 370.105L306.157 369.306L303.555 351.267L307.773 349.932L310.073 374.912L305.968 376.214Z" fill="white"/>
<path d="M309.316 349.454L313.388 348.177L320.425 371.65L316.354 372.927L309.316 349.454Z" fill="white"/>
<path d="M328.985 369.279C326.915 369.918 325.284 370.001 324.102 369.531C322.91 369.06 322.113 368.137 321.708 366.772L317.272 351.844C316.769 350.154 316.866 348.795 317.573 347.779C318.28 346.764 319.659 345.93 321.729 345.292C323.728 344.673 325.331 344.575 326.561 344.992C327.79 345.409 328.644 346.481 329.132 348.209L330.612 353.216L326.758 354.947L325.42 350.433C325.184 349.645 324.893 349.09 324.531 348.745C324.169 348.399 323.583 348.36 322.755 348.615C321.957 348.865 321.524 349.251 321.445 349.77C321.366 350.289 321.433 350.891 321.635 351.573L325.496 364.57C325.651 365.105 325.915 365.516 326.273 365.821C326.631 366.126 327.179 366.158 327.903 365.937C328.68 365.694 329.137 365.353 329.286 364.884C329.435 364.425 329.434 363.914 329.262 363.357L328.015 359.148L331.885 357.449L333.564 363.097C333.969 364.462 333.783 365.686 333.006 366.772C332.23 367.857 330.891 368.686 328.995 369.281L328.985 369.279Z" fill="white"/>
<path d="M330.267 342.938L341.722 339.432L342.664 342.653L335.287 344.902L336.978 350.672L343.569 348.655L343.994 352.037L337.93 353.895L340.296 361.973L347.673 359.723L348.615 362.944L337.16 366.449L330.279 342.92L330.267 342.938Z" fill="white"/>
<path d="M356.602 360.837C355.505 361.172 354.454 361.403 353.446 361.541C352.438 361.679 351.59 361.611 350.902 361.336C350.213 361.061 349.745 360.509 349.507 359.67L347.974 354.355L351.889 352.683L353.058 356.75C353.187 357.201 353.423 357.528 353.761 357.709C354.099 357.891 354.654 357.875 355.429 357.641C355.926 357.486 356.299 357.302 356.53 357.087C356.761 356.861 356.898 356.611 356.921 356.324C356.945 356.037 356.906 355.71 356.796 355.332L356.067 352.786C355.874 352.105 355.535 351.542 355.069 351.101C354.603 350.659 353.925 350.446 353.028 350.44L350.208 350.424C349.008 350.402 348.084 350.182 347.436 349.772C346.787 349.363 346.296 348.567 345.945 347.371L344.523 342.434C344.198 341.322 344.237 340.415 344.639 339.714C345.032 339.012 345.681 338.439 346.588 337.995C347.485 337.54 348.501 337.152 349.629 336.812C350.703 336.494 351.692 336.283 352.612 336.202C353.523 336.119 354.296 336.227 354.943 336.515C355.58 336.802 356.012 337.339 356.238 338.125L357.77 343.44L353.888 345.227L352.782 341.391C352.556 340.604 352.273 340.13 351.942 339.97C351.611 339.809 351.093 339.841 350.391 340.045C349.667 340.266 349.197 340.566 348.982 340.944C348.767 341.323 348.781 341.946 349.035 342.807L349.668 345.008C349.836 345.595 350.126 346.09 350.527 346.502C350.928 346.914 351.467 347.136 352.125 347.155L355.276 347.202C356.555 347.226 357.538 347.445 358.214 347.868C358.891 348.282 359.4 349.091 359.743 350.276L361.179 355.255C361.497 356.346 361.479 357.246 361.145 357.947C360.801 358.657 360.23 359.232 359.422 359.681C358.614 360.129 357.677 360.519 356.602 360.837Z" fill="white"/>
<path d="M367.813 335.129L363.837 336.3L362.926 333.065L374.971 329.508L375.882 332.744L371.905 333.915L377.648 354.275L373.558 355.479L367.815 335.119L367.813 335.129Z" fill="white"/>
<path d="M376.892 328.947L380.99 327.754L383.498 336.786L387.256 335.692L384.748 326.66L388.846 325.467L395.407 349.089L391.309 350.282L388.157 338.926L384.399 340.021L387.551 351.376L383.453 352.569L376.892 328.947Z" fill="white"/>
<path d="M397.046 348.626L395.446 323.591L399.964 322.301L411.239 344.573L406.988 345.793L404.613 340.961L405.472 341.412L400.283 342.901L400.673 342.088L401.201 347.451L397.064 348.638L397.046 348.626ZM400.211 339.863L399.711 339.516L404.342 338.193L403.943 338.805L399.383 328.469L399.147 327.751L398.848 327.836L399.012 328.573L400.23 339.866L400.211 339.863Z" fill="white"/>
<path d="M407.784 323.568L403.794 324.697L402.914 321.456L415.006 318.047L415.886 321.288L411.896 322.417L417.402 342.841L413.299 344.003L407.792 323.579L407.784 323.568Z" fill="white"/>
<path d="M422.889 315.844L431.899 313.361C433.083 313.039 433.942 313.099 434.496 313.544C435.049 313.999 435.478 314.816 435.799 316.018L440.2 332.735C440.518 333.956 440.561 334.905 440.322 335.571C440.083 336.236 439.345 336.746 438.11 337.08L429.13 339.557L422.889 315.844ZM434.717 334.53C435.325 334.362 435.678 334.114 435.777 333.789C435.876 333.463 435.855 333.018 435.713 332.456L432.057 318.568C431.906 318.004 431.707 317.623 431.444 317.402C431.182 317.182 430.812 317.146 430.339 317.275L427.815 317.975L432.339 335.182L434.717 334.53Z" fill="white"/>
<path d="M437.522 311.808L449.078 308.679L449.917 311.934L442.476 313.953L443.981 319.775L450.629 317.976L450.942 321.372L444.829 323.031L446.937 331.191L454.377 329.171L455.216 332.426L443.66 335.556L437.521 311.818L437.522 311.808Z" fill="white"/>
<path d="M451.289 308.092L462.857 305.014L463.686 308.268L456.24 310.256L457.724 316.085L464.418 314.303L464.721 317.708L458.561 319.35L461.465 330.778L457.342 331.877L451.305 308.114L451.289 308.092Z" fill="white"/>
<path d="M464.975 304.453L469.097 303.364L475.061 327.146L470.939 328.235L464.975 304.453Z" fill="white"/>
<path d="M477.784 326.436L471.902 302.627L476.031 301.559L484.266 315.319L484.32 315.548L484.361 315.534L480.613 300.369L484.741 299.301L490.623 323.11L486.38 324.211L478.621 311.876L478.512 311.619L478.47 311.633L481.861 325.38L477.773 326.444L477.784 326.436Z" fill="white"/>
<path d="M487.594 298.581L499.191 295.638L499.978 298.905L492.507 300.8L493.919 306.648L500.59 304.953L500.854 308.351L494.716 309.916L496.7 318.107L504.171 316.213L504.958 319.48L493.362 322.423L487.592 298.591L487.594 298.581Z" fill="white"/>
<path d="M516.775 316.52L514.838 308.277L506.074 293.905L509.868 292.967L515.717 302.806L515.936 303.571L515.978 303.558L515.83 302.773L516.471 291.332L520.264 290.393L518.843 307.24L520.795 315.516L516.767 316.509L516.775 316.52Z" fill="white"/>
<path d="M532.734 312.856C530.633 313.369 529.007 313.353 527.866 312.809C526.725 312.265 525.998 311.333 525.698 309.994L522.042 294.152C521.75 292.894 521.972 291.755 522.718 290.735C523.455 289.714 524.924 288.945 527.097 288.412C529.279 287.881 530.923 287.91 532.03 288.479C533.138 289.048 533.837 289.966 534.13 291.223L537.786 307.066C538.091 308.375 537.845 309.541 537.069 310.556C536.284 311.57 534.846 312.334 532.735 312.846L532.734 312.856ZM531.941 309.427C532.679 309.249 533.158 308.95 533.38 308.533C533.601 308.115 533.643 307.58 533.494 306.936L530.354 293.287C530.21 292.674 529.962 292.225 529.601 291.94C529.238 291.664 528.653 291.616 527.844 291.814C527.055 292.005 526.566 292.302 526.378 292.694C526.189 293.096 526.161 293.604 526.305 294.217L529.46 307.898C529.609 308.542 529.876 308.994 530.258 309.272C530.641 309.541 531.196 309.595 531.933 309.416L531.941 309.427Z" fill="white"/>
<path d="M547.198 309.356C546.052 309.623 545.006 309.755 544.041 309.739C543.077 309.723 542.27 309.51 541.63 309.113C540.991 308.705 540.566 308.059 540.367 307.157L535.749 286.667L539.895 285.682L544.218 304.864C544.284 305.144 544.393 305.401 544.555 305.636C544.717 305.871 544.95 306.027 545.262 306.115C545.574 306.202 545.97 306.192 546.452 306.075C546.985 305.945 547.376 305.774 547.616 305.559C547.857 305.335 548.005 305.077 548.038 304.791C548.083 304.497 548.065 304.224 548.015 303.966L543.692 284.784L547.838 283.799L552.456 304.288C552.655 305.191 552.557 305.968 552.162 306.62C551.757 307.27 551.12 307.825 550.253 308.275C549.376 308.723 548.363 309.091 547.187 309.364L547.198 309.356Z" fill="white"/>
<path d="M563.249 305.474C561.449 305.893 560.041 306 559.036 305.798C558.03 305.595 557.294 305.183 556.819 304.539C556.343 303.906 556.016 303.134 555.817 302.232L554.865 297.907C554.678 297.057 554.616 296.295 554.686 295.634C554.757 294.973 555.055 294.377 555.576 293.865C556.108 293.354 556.913 292.925 558.019 292.591C556.983 292.725 556.134 292.726 555.481 292.607C554.828 292.488 554.332 292.182 553.981 291.698C553.63 291.214 553.367 290.542 553.18 289.692L552.504 286.602C552.237 285.368 552.219 284.383 552.465 283.669C552.712 282.954 553.252 282.384 554.115 281.964C554.967 281.552 556.15 281.17 557.653 280.826C559.074 280.501 560.243 280.337 561.15 280.344C562.057 280.351 562.776 280.621 563.308 281.143C563.839 281.674 564.237 282.567 564.518 283.833L565.23 287.078L561.449 289.171L560.773 286.081C560.676 285.616 560.542 285.264 560.382 285.02C560.221 284.775 559.977 284.627 559.649 284.578C559.321 284.528 558.86 284.578 558.277 284.71C557.767 284.824 557.39 284.967 557.127 285.138C556.874 285.31 556.716 285.506 556.659 285.748C556.603 285.99 556.616 286.293 556.699 286.657L557.077 288.398C557.287 289.352 557.496 290.056 557.715 290.5C557.932 290.954 558.269 291.205 558.731 291.285C559.184 291.354 559.862 291.307 560.758 291.122L562.436 290.735L562.751 292.166L561.088 292.595C560.256 292.81 559.649 293.099 559.278 293.464C558.899 293.817 558.714 294.321 558.727 294.954C558.729 295.586 558.843 296.465 559.059 297.581L559.731 300.63C559.79 300.89 559.862 301.131 559.953 301.376C560.044 301.62 560.173 301.81 560.339 301.955C560.503 302.111 560.735 302.206 561.026 302.24C561.315 302.284 561.686 302.25 562.146 302.139C562.626 302.032 563.005 301.879 563.269 301.698C563.533 301.518 563.712 301.314 563.796 301.086C563.878 300.868 563.914 300.633 563.881 300.397C563.848 300.162 563.814 299.926 563.771 299.689L562.294 292.969L569.228 291.364L569.078 294.69L567.136 295.137L567.661 297.532C567.89 298.559 568.034 299.493 568.094 300.335C568.154 301.176 568.06 301.923 567.803 302.576C567.546 303.229 567.054 303.806 566.338 304.299C565.622 304.792 564.595 305.187 563.276 305.489L563.249 305.474Z" fill="white"/>
<path d="M575.329 277.482L584.031 275.544C585.124 275.299 585.959 275.255 586.537 275.413C587.115 275.571 587.548 275.907 587.825 276.42C588.112 276.935 588.335 277.611 588.506 278.438L589.564 283.431C589.758 284.363 589.87 285.252 589.89 286.097C589.91 286.942 589.649 287.684 589.126 288.337C588.595 288.978 587.602 289.469 586.152 289.791L582.446 290.612L584.548 300.565L580.392 301.488L575.32 277.481L575.329 277.482ZM584.09 286.801C584.723 286.657 585.15 286.38 585.35 285.97C585.561 285.561 585.567 284.93 585.392 284.071L584.811 281.327C584.593 280.291 584.344 279.662 584.074 279.42C583.794 279.187 583.338 279.138 582.704 279.283L580.182 279.842L581.763 287.31L584.091 286.791L584.09 286.801ZM590.333 300.089L583.781 290.072L586.546 289.339L587.792 289.388L588.025 289.543L593.869 297.728L590.332 300.099L590.333 300.089Z" fill="white"/>
<path d="M590.666 274.084L602.359 271.547L603.034 274.838L595.504 276.472L596.713 282.36L603.436 280.904L603.58 284.314L597.388 285.65L599.086 293.908L606.616 292.273L607.291 295.563L595.598 298.1L590.658 274.073L590.666 274.084Z" fill="white"/>
<path d="M615.461 294.136C614.339 294.377 613.272 294.516 612.257 294.572C611.242 294.629 610.406 294.482 609.746 294.151C609.085 293.82 608.662 293.225 608.495 292.377L607.404 286.949L611.446 285.607L612.276 289.763C612.373 290.229 612.578 290.571 612.901 290.78C613.223 290.999 613.782 291.024 614.568 290.852C615.077 290.749 615.457 290.586 615.714 290.385C615.962 290.182 616.117 289.945 616.169 289.662C616.212 289.378 616.204 289.045 616.124 288.662L615.6 286.067C615.46 285.364 615.173 284.779 614.752 284.304C614.321 283.828 613.663 283.547 612.767 283.472L609.963 283.217C608.768 283.096 607.866 282.798 607.255 282.335C606.645 281.871 606.219 281.035 605.97 279.814L604.959 274.769C604.727 273.631 604.845 272.726 605.299 272.073C605.755 271.411 606.445 270.894 607.379 270.524C608.313 270.155 609.357 269.842 610.499 269.604C611.6 269.37 612.604 269.252 613.522 269.25C614.44 269.249 615.204 269.415 615.814 269.758C616.423 270.101 616.819 270.673 616.974 271.478L618.065 276.907L614.045 278.362L613.258 274.443C613.092 273.646 612.862 273.15 612.545 272.962C612.228 272.773 611.708 272.755 610.994 272.907C610.25 273.065 609.757 273.321 609.514 273.685C609.272 274.049 609.237 274.666 609.41 275.544L609.858 277.797C609.974 278.396 610.221 278.915 610.588 279.362C610.954 279.808 611.466 280.076 612.126 280.146L615.257 280.451C616.53 280.584 617.49 280.89 618.13 281.358C618.769 281.826 619.213 282.675 619.453 283.884L620.468 288.97C620.693 290.087 620.608 290.977 620.208 291.658C619.809 292.339 619.196 292.868 618.35 293.241C617.512 293.625 616.539 293.928 615.449 294.154L615.461 294.136Z" fill="white"/>
<path d="M629.567 291.112C628.416 291.349 627.364 291.45 626.394 291.403C625.434 291.358 624.631 291.126 624.005 290.7C623.379 290.274 622.976 289.611 622.798 288.702L618.773 268.072L622.949 267.212L626.711 286.519C626.766 286.808 626.875 287.065 627.025 287.308C627.177 287.542 627.407 287.717 627.718 287.815C628.029 287.912 628.424 287.912 628.912 287.815C629.452 287.707 629.841 287.545 630.091 287.332C630.34 287.119 630.488 286.861 630.542 286.569C630.587 286.275 630.588 286.004 630.54 285.736L626.778 266.429L630.954 265.569L634.97 286.198C635.147 287.107 635.02 287.879 634.608 288.519C634.185 289.156 633.532 289.689 632.648 290.116C631.765 290.544 630.727 290.877 629.557 291.111L629.567 291.112Z" fill="white"/>
<path d="M633.701 265.023L637.884 264.184L641.825 284.982L648.724 283.602L649.348 286.905L638.266 289.124L633.693 265.012L633.701 265.023Z" fill="white"/>
<path d="M646.911 265.824L642.843 266.62L642.23 263.309L654.546 260.896L655.159 264.207L651.091 265.004L654.959 285.821L650.779 286.641L646.911 265.824Z" fill="white"/>
<path d="M666.919 283.805C665.791 284.015 664.726 284.145 663.706 284.17C662.693 284.207 661.859 284.051 661.201 283.7C660.543 283.36 660.141 282.757 659.984 281.902L659.005 276.45L663.064 275.191L663.814 279.355C663.902 279.819 664.095 280.169 664.417 280.389C664.739 280.608 665.287 280.641 666.089 280.492C666.597 280.398 666.985 280.247 667.241 280.055C667.497 279.863 667.653 279.616 667.704 279.343C667.757 279.06 667.757 278.73 667.679 278.337L667.206 275.729C667.076 275.027 666.81 274.436 666.39 273.951C665.971 273.466 665.314 273.176 664.422 273.071L661.628 272.757C660.437 272.607 659.536 272.3 658.938 271.818C658.339 271.346 657.926 270.492 657.706 269.275L656.796 264.215C656.594 263.072 656.72 262.179 657.184 261.527C657.648 260.876 658.356 260.372 659.298 260.013C660.24 259.655 661.29 259.373 662.438 259.156C663.536 258.942 664.547 258.845 665.462 258.863C666.377 258.881 667.14 259.057 667.746 259.42C668.353 259.773 668.729 260.351 668.874 261.155L669.853 266.607L665.806 267.978L665.101 264.041C664.956 263.237 664.727 262.731 664.411 262.543C664.095 262.345 663.586 262.318 662.864 262.459C662.123 262.597 661.62 262.852 661.37 263.205C661.117 263.567 661.073 264.182 661.225 265.067L661.633 267.325C661.739 267.922 661.975 268.449 662.331 268.904C662.696 269.361 663.196 269.637 663.844 269.725L666.965 270.098C668.233 270.261 669.19 270.586 669.818 271.063C670.445 271.549 670.869 272.395 671.098 273.622L672.021 278.725C672.227 279.839 672.121 280.735 671.713 281.405C671.306 282.075 670.675 282.591 669.83 282.954C668.986 283.317 668.006 283.599 666.907 283.814L666.919 283.805Z" fill="white"/>
<path d="M680.703 259.41L676.624 260.155L676.051 256.84L688.401 254.593L688.973 257.908L684.894 258.652L688.488 279.518L684.296 280.286L680.702 259.42L680.703 259.41Z" fill="white"/>
<path d="M690.389 254.233L694.586 253.496L696.123 262.752L699.976 262.073L698.439 252.817L702.636 252.08L706.661 276.29L702.464 277.027L700.529 265.385L696.676 266.064L698.611 277.705L694.414 278.442L690.389 254.233Z" fill="white"/>
<path d="M708.312 276.009L709.411 250.933L714.039 250.151L722.844 273.551L718.49 274.284L716.654 269.214L717.45 269.756L712.133 270.654L712.604 269.893L712.557 275.279L708.313 275.999L708.312 276.009ZM712.402 267.647L711.94 267.246L716.68 266.441L716.21 267.001L712.794 256.218L712.639 255.482L712.334 255.536L712.417 256.291L712.41 267.658L712.402 267.647Z" fill="white"/>
<path d="M721.71 252.277L717.621 252.95L717.109 249.624L729.485 247.592L729.997 250.917L725.909 251.59L729.138 272.521L724.939 273.207L721.71 252.277Z" fill="white"/>
<path d="M741.094 270.595L737.596 246.295L742.89 245.484L749.152 259.948L749.186 260.184L749.266 260.176L749.232 259.94L751.162 244.223L756.496 243.408L759.994 267.708L755.782 268.352L753.595 253.103L753.551 253.066L753.633 253.891L751.778 265.669L748.374 266.186L743.323 255.505L743.178 254.771L743.134 254.734L745.317 269.943L741.105 270.587L741.094 270.595Z" fill="white"/>
<path d="M761.62 267.463L763.317 242.417L767.957 241.748L776.197 265.363L771.829 265.994L770.117 260.882L770.899 261.452L765.563 262.217L766.052 261.469L765.876 266.855L761.62 267.463ZM765.902 259.2L765.453 258.781L770.214 258.1L769.736 258.649L766.569 247.783L766.434 247.041L766.122 247.083L766.186 247.835L765.902 259.2Z" fill="white"/>
<path d="M774.785 240.778L779.006 240.206L782.121 264.558L777.9 265.13L774.785 240.778ZM788.239 264.363L779.215 251.646L784.664 239.079L788.096 240.652L783.479 250.789L791.752 261.888L788.249 264.364L788.239 264.363Z" fill="white"/>
<path d="M790.41 238.667L802.266 237.137L802.667 240.476L795.028 241.463L795.75 247.437L802.574 246.557L802.432 249.964L796.151 250.776L797.161 259.15L804.79 258.161L805.192 261.5L793.336 263.03L790.402 238.656L790.41 238.667Z" fill="white"/>
<path d="M817.203 260.054L816.28 251.633L809.325 236.263L813.203 235.809L817.817 246.313L817.945 247.094L817.984 247.1L817.937 246.301L819.954 235.018L823.832 234.564L820.383 251.123L821.31 259.584L817.2 260.074L817.203 260.054Z" fill="white"/>
<path d="M833.443 258.437C831.296 258.673 829.692 258.45 828.62 257.776C827.559 257.094 826.954 256.07 826.816 254.705L825.157 238.514C825.026 237.231 825.391 236.123 826.251 235.201C827.112 234.279 828.66 233.702 830.887 233.458C833.115 233.215 834.738 233.441 835.764 234.158C836.792 234.865 837.37 235.865 837.5 237.158L839.159 253.349C839.291 254.693 838.913 255.818 838.015 256.725C837.118 257.631 835.589 258.211 833.442 258.447L833.443 258.437ZM833.087 254.935C833.84 254.848 834.349 254.615 834.625 254.226C834.901 253.836 835.001 253.31 834.932 252.658L833.505 238.707C833.443 238.077 833.25 237.596 832.923 237.276C832.597 236.956 832.022 236.838 831.2 236.924C830.397 237.013 829.879 237.245 829.646 237.611C829.411 237.986 829.326 238.485 829.388 239.116L830.818 253.107C830.885 253.769 831.089 254.251 831.434 254.574C831.78 254.897 832.335 255.011 833.077 254.933L833.087 254.935Z" fill="white"/>
<path d="M848.192 256.835C847.03 256.949 845.966 256.938 845.009 256.803C844.054 256.658 843.282 256.351 842.705 255.862C842.128 255.374 841.79 254.671 841.702 253.755L839.728 232.814L843.967 232.385L845.819 251.984C845.845 252.268 845.922 252.541 846.052 252.791C846.182 253.041 846.399 253.235 846.696 253.36C846.993 253.485 847.391 253.525 847.882 253.479C848.423 253.421 848.836 253.303 849.102 253.113C849.377 252.924 849.541 252.688 849.624 252.4C849.698 252.111 849.73 251.835 849.699 251.58L847.847 231.981L852.086 231.551L854.061 252.492C854.147 253.417 853.954 254.17 853.47 254.758C852.986 255.346 852.284 255.811 851.365 256.143C850.447 256.475 849.386 256.705 848.193 256.825L848.192 256.835Z" fill="white"/>
<path d="M869.138 254.899C867.998 254.997 866.919 255.024 865.913 254.951C864.898 254.878 864.085 254.644 863.466 254.239C862.846 253.834 862.5 253.19 862.424 252.327L861.969 246.804L866.134 245.952L866.48 250.175C866.516 250.652 866.689 251.009 866.986 251.264C867.283 251.52 867.832 251.603 868.632 251.534C869.152 251.493 869.543 251.382 869.816 251.212C870.088 251.043 870.27 250.82 870.35 250.552C870.43 250.283 870.452 249.945 870.423 249.55L870.203 246.9C870.143 246.189 869.931 245.576 869.557 245.048C869.183 244.52 868.566 244.166 867.686 243.982L864.933 243.394C863.76 243.126 862.903 242.725 862.342 242.199C861.791 241.664 861.461 240.782 861.363 239.544L860.938 234.407C860.847 233.251 861.06 232.371 861.585 231.769C862.11 231.167 862.858 230.729 863.834 230.476C864.801 230.211 865.874 230.033 867.044 229.93C868.155 229.828 869.171 229.832 870.082 229.94C870.993 230.048 871.734 230.301 872.303 230.718C872.871 231.135 873.193 231.745 873.257 232.557L873.712 238.079L869.558 239.053L869.226 235.063C869.162 234.251 868.976 233.722 868.684 233.497C868.393 233.272 867.881 233.195 867.15 233.264C866.4 233.331 865.876 233.532 865.59 233.86C865.303 234.187 865.2 234.803 865.272 235.696L865.457 237.99C865.503 238.598 865.687 239.138 866.008 239.627C866.328 240.117 866.802 240.44 867.44 240.596L870.514 241.273C871.763 241.563 872.678 241.972 873.265 242.523C873.843 243.071 874.183 243.955 874.291 245.194L874.721 250.362C874.815 251.499 874.623 252.373 874.152 253.003C873.682 253.633 873.002 254.082 872.131 254.36C871.26 254.639 870.254 254.828 869.143 254.93L869.138 254.899Z" fill="white"/>
<path d="M877.425 253.87L875.664 229.373L880.998 228.949L886.22 243.836L886.234 244.069L886.314 244.061L886.3 243.828L889.337 228.289L894.711 227.861L896.472 252.358L892.227 252.697L891.125 237.322L891.081 237.285L891.103 238.12L888.414 249.733L884.988 250.005L880.71 238.98L880.616 238.234L880.572 238.197L881.67 253.532L877.425 253.87Z" fill="white"/>
<path d="M897.708 227.684L901.957 227.386L903.498 251.9L899.249 252.198L897.708 227.684Z" fill="white"/>
<path d="M904.869 227.186L909.113 226.917L910.314 248.082L917.327 247.642L917.517 251.009L906.249 251.716L904.857 227.194L904.869 227.186Z" fill="white"/>
<path d="M918.158 226.355L930.087 225.708L930.248 229.071L922.567 229.489L922.858 235.508L929.723 235.136L929.337 238.526L923.019 238.871L923.418 247.302L931.099 246.884L931.26 250.246L919.33 250.893L918.158 226.355Z" fill="white"/>
</svg>
