<svg width="222" height="96" viewBox="0 0 222 96" fill="none" xmlns="http://www.w3.org/2000/svg">
<g clip-path="url(#clip0_35_92)">
<path d="M49.7874 95.6367C49.7874 95.6367 51.7115 95.235 51.7115 92.4769V74.1128C51.7115 72.3745 50.9852 71.6097 50.4442 71.2466H50.0424C47.3919 71.2466 47.3919 78.107 47.3919 78.107H47.0674V70.5899H58.8671V78.107H58.5425C58.5425 78.107 58.5425 71.2466 55.8921 71.2466H55.5289C54.9493 71.6097 54.2229 72.3745 54.2229 74.1128V92.4769C54.2229 95.235 56.1471 95.6367 56.1471 95.6367V95.9998H49.7952V95.6367H49.7874Z" fill="black"/>
<path d="M74.9171 70.9532C74.9171 70.9532 72.993 71.0227 72.993 73.4949V93.0951C72.993 95.5287 74.9171 95.6369 74.9171 95.6369V96H68.3797V95.6369C68.3797 95.6369 70.3038 95.5674 70.3038 93.0951V80.3168H64.2765L64.2378 91.0633H64.2765V93.0951C64.2765 95.5287 66.2006 95.6369 66.2006 95.6369V96H59.6323V95.6369C59.6323 95.6369 61.5564 95.5674 61.5564 93.0951V73.4949C61.5564 71.0613 59.6323 70.9532 59.6323 70.9532V70.5901H66.2006V70.9532C66.2006 70.9532 64.2765 71.0227 64.2765 73.6726V79.6601H70.3038V73.4872C70.3038 71.0536 68.3797 70.9454 68.3797 70.9454V70.5823H74.9171V70.9454V70.9532Z" fill="black"/>
<path d="M83.8808 83.5538L80.8671 83.5152L83.3321 84.4964L87.8372 92.9174C89.29 95.5674 90.7041 95.6369 90.7041 95.6369V96H86.199L80.2798 83.5152V92.4771C80.2798 95.2738 82.2426 95.6369 82.2426 95.6369V96H75.6743V95.6369C75.8598 95.5983 77.413 95.2043 77.5984 92.9483V73.1318C77.413 71.0613 75.6743 70.9532 75.6743 70.9532V70.5901H82.6058C87.6518 70.5901 89.1045 74.2598 89.2127 76.9406C89.2127 76.9406 89.4677 83.5461 83.8731 83.5461L83.8808 83.5538ZM86.6395 76.7629V76.6934C86.6395 71.2158 82.2503 71.2158 82.2503 71.2158H80.2876V82.9744H82.6831C86.8945 82.9744 86.6395 76.7706 86.6395 76.7706V76.7629Z" fill="black"/>
<path d="M90.9976 96V95.6369C90.9976 95.6369 92.9217 95.2738 92.9217 92.4771V74.113C92.9217 71.2081 90.9976 70.9532 90.9976 70.9532V70.5901H103.887V78.1072H103.562C103.562 78.1072 103.562 71.2467 100.912 71.2467H95.6494V79.7064H99.7913C101.422 79.7064 101.46 74.8083 101.46 74.8083H101.785V85.2612H101.46C101.46 85.2612 101.638 80.3631 99.8609 80.3631H95.6494V95.351H100.912C103.562 95.351 103.562 88.4906 103.562 88.4906H103.887V96.0077H90.9976V96Z" fill="black"/>
<path d="M104.729 95.6369C104.729 95.6369 106.723 95.2352 107.125 92.4771L111.151 74.113C111.475 72.1198 110.532 71.3549 110.022 71.1C109.767 70.9918 109.621 70.9532 109.621 70.9532L109.551 70.5901H116.088L116.158 70.9532C116.158 70.9532 114.342 71.3163 114.96 74.113L119.133 92.4771C119.751 95.2352 121.783 95.6369 121.783 95.6369L121.853 96H115.462L115.393 95.6369C115.393 95.6369 117.247 95.2352 116.591 92.4771L115.54 87.3626H109.041L107.951 92.4771C107.519 95.2352 109.404 95.6369 109.404 95.6369L109.335 96H104.652L104.721 95.6369H104.729ZM115.292 86.5978L112.062 72.985L109.265 86.5592L115.292 86.5978Z" fill="black"/>
<path d="M129.673 70.5901C135.662 70.5901 137.625 76.5775 137.625 82.8585V82.8972C137.625 89.1782 136.133 96 130.948 96H122.564V95.6369C122.564 95.6369 124.303 95.5674 124.488 93.4582V73.1318C124.303 71.0613 122.564 70.9532 122.564 70.9532V70.5901H129.681H129.673ZM129.967 95.3433C135.306 95.3433 134.974 83.8706 134.974 83.8706V83.832C134.974 70.7987 129.526 71.2004 129.526 71.2004H127.169V95.3356H129.967V95.3433Z" fill="black"/>
<path d="M137.37 70.5901H143.938V70.9532C143.938 70.9532 141.975 71.3549 141.975 74.113V92.4771C141.975 95.2738 143.938 95.6369 143.938 95.6369V96H137.37V95.6369C137.37 95.6369 139.294 95.2738 139.294 92.4771V74.113C139.294 71.3549 137.37 70.9532 137.37 70.9532V70.5901Z" fill="black"/>
<path d="M159.478 93.0951C159.478 95.5287 161.402 95.6369 161.402 95.6369V96H154.864V95.6369C154.864 95.6369 156.789 95.5674 156.789 93.0951V92.4384L149.417 74.5765V93.0874C149.417 95.521 151.341 95.6292 151.341 95.6292V95.9923H144.772V95.6292C144.772 95.6292 146.697 95.5596 146.697 93.0874V73.4872C146.697 71.0536 144.772 70.9454 144.772 70.9454V70.5823H151.341V70.9454C151.341 70.9454 149.849 71.015 149.486 72.6837L156.781 90.3216V73.4795C156.781 71.0459 154.857 70.9377 154.857 70.9377V70.5746H161.394V70.9377C161.394 70.9377 159.47 71.0072 159.47 73.4795V93.0797L159.478 93.0951Z" fill="black"/>
<path d="M175.821 86.1265V96H175.527C175.527 96 175.458 93.0951 174.871 93.0951C174.801 93.0951 174.685 93.1647 174.577 93.3114C173.379 94.8025 171.71 95.9614 169.098 95.9614C160.165 95.9614 160.745 83.3993 160.745 83.3993C160.745 83.3993 160.235 70.5901 169.098 70.5901C171.532 70.5901 173.24 71.5712 174.469 72.985C175.234 73.6726 175.45 70.6287 175.45 70.6287H175.744L175.782 80.5717H175.203C175.095 78.9029 174.878 76.6548 174.368 75.0555C173.572 72.6992 171.393 71.2467 169.106 71.2467C163.117 71.2467 163.519 83.2603 163.519 83.2603C163.519 83.2603 163.009 95.3124 169.106 95.3124C172.521 95.3124 174.26 91.8281 174.732 88.9232C174.438 88.7764 174.152 88.5601 173.858 88.2665C171.718 86.0879 168.38 82.7504 166.2 82.7504C165.837 82.7504 165.544 82.8199 165.258 83.0053C165.258 83.0053 166.564 81.2979 168.341 81.267C171.138 81.1975 174.654 85.2226 175.713 86.1265L175.821 86.2347V86.1265Z" fill="black"/>
<path d="M22.6721 52.7822L29.6268 56.7301L23.5222 67.4766L23.1821 67.2834C23.1821 67.2834 23.8622 65.3134 21.2735 63.8455L4.27324 54.1883C1.72321 52.7359 0.340005 54.3119 0.340005 54.3119L0 54.1188L3.4155 48.1082L3.75551 48.3013C3.75551 48.3013 3.29959 50.3563 5.4169 51.5538L25.3381 62.872L27.4554 59.1405C28.8463 56.6915 22.5021 53.0835 22.5021 53.0835L22.6721 52.7822Z" fill="black"/>
<path d="M35.2138 51.8011C28.1355 58.4297 19.2876 48.0232 19.2876 48.0232C19.2876 48.0232 9.32703 38.2424 16.3512 31.6678C23.3136 25.1473 32.5169 35.6388 32.5169 35.6388C32.5169 35.6388 42.292 45.1724 35.2138 51.8011ZM30.2373 37.5625C30.2373 37.5625 21.2813 28.0058 16.8303 32.1777C12.0934 36.6123 21.3586 45.8831 21.3586 45.8831C21.3586 45.8831 29.9205 55.8107 34.7424 51.2989C39.4252 46.9184 30.2451 37.5703 30.2451 37.5703L30.2373 37.5625Z" fill="black"/>
<path d="M43.2966 44.5466C43.2966 44.5466 44.7802 43.1946 42.6784 40.9928L28.715 26.5997C26.6286 24.4288 24.5963 25.1705 24.5963 25.1705L24.2949 24.9L30.2759 21.2767L30.5464 21.5703C30.5464 21.5703 29.0782 22.9532 31.1955 25.1009L45.1279 39.5094C45.2593 39.6562 45.3752 39.7644 45.4911 39.8803C45.4448 39.7257 45.3984 39.5789 45.3289 39.3935L38.861 20.4577C37.7019 17.7306 35.801 18.3873 35.801 18.3873L35.6387 18.0396L39.997 15.3974L40.1283 15.7682C40.1283 15.7682 38.5288 17.2361 39.6879 19.9633L46.1557 38.8991C47.0134 40.9078 48.2034 41.0855 48.8448 41.0237C49.0998 41.0005 49.2853 40.9387 49.2853 40.9387L49.548 41.2323L43.5979 44.8324L43.2966 44.562V44.5466Z" fill="black"/>
<path d="M53.5662 39.0072L53.4194 38.6519C53.4194 38.6519 55.1812 37.5316 54.0762 34.7735L46.8202 16.6181C45.6765 13.7518 43.6751 14.254 43.6751 14.254L43.5283 13.8986L56.263 8.80734L59.2304 16.2318L58.9058 16.3631C58.9058 16.3631 56.1935 9.57991 53.5739 10.6306L48.3734 12.7088L51.7116 21.0681L55.7994 19.4302C57.4144 18.789 55.5135 13.9295 55.5135 13.9295L55.838 13.7982L59.9645 24.1275L59.6399 24.2588C59.6399 24.2588 57.8858 19.3452 56.124 20.0483L51.9589 21.7093L57.8781 36.5273L63.0786 34.4491C65.6982 33.4061 62.9859 26.6229 62.9859 26.6229L63.3104 26.4916L66.2777 33.916L53.543 39.0072H53.5662Z" fill="black"/>
<path d="M76.2617 22.9454L78.379 30.6557L66.4557 33.9314L66.3552 33.5606C66.3552 33.5606 68.2252 32.6412 67.4371 29.775L62.252 10.9242C61.4715 8.09657 59.3851 8.22791 59.3851 8.22791L59.2847 7.85707L65.9534 6.02607L66.0539 6.39691C66.0539 6.39691 64.2843 7.52487 64.9257 9.87349L70.9994 31.9614L75.1335 30.8257C77.8536 30.0763 75.914 23.0381 75.914 23.0381L76.2463 22.9454H76.2617Z" fill="black"/>
<path d="M79.1982 30.1844C79.1982 30.1844 81.1378 29.4196 80.5737 26.4993L78.6341 16.4867L71.8881 8.27426C70.0722 6.02607 68.519 5.50072 68.519 5.50072L68.3335 5.14534L75.1954 3.81651L75.3422 4.17962C75.3422 4.17962 72.8386 5.493 74.7318 7.71801L80.9137 15.0575L83.6801 5.97972C84.1128 3.14437 81.5241 2.97441 81.5241 2.97441L81.4932 2.58812L86.346 1.64558V2.03959C86.346 2.03959 85.0865 3.662 84.476 5.8252L81.385 16.0618L83.3014 25.9585C83.8655 28.8788 85.9519 28.8711 85.9519 28.8711L86.0292 29.2496L79.2755 30.5553L79.1982 30.1767V30.1844Z" fill="black"/>
<path d="M99.5056 27.5268L99.4901 27.1405C99.4901 27.1405 101.522 26.6924 101.43 23.718L100.812 4.17962C100.711 1.08933 98.6556 0.888458 98.6556 0.888458L98.6401 0.502172L112.349 0.0695305L112.604 8.05794H112.256C112.256 8.05794 112.024 0.772573 109.203 0.865281L103.601 1.04297L103.887 10.0357L108.292 9.89667C110.03 9.84259 109.899 4.62771 109.899 4.62771H110.247L110.602 15.7373H110.254C110.254 15.7373 110.285 10.5302 108.392 10.592L103.91 10.731L104.42 26.677L110.023 26.4993C112.843 26.4066 112.611 19.1135 112.611 19.1135H112.959L113.214 27.0942L99.5056 27.5268Z" fill="black"/>
<path d="M119.303 27.0014C119.303 27.0014 121.374 26.7619 121.583 23.7953L122.294 13.6205L117.897 3.94013C116.722 1.30565 115.354 0.394013 115.354 0.394013L115.262 0L122.24 0.486721L122.286 0.880734C122.286 0.880734 119.527 1.49879 120.779 4.14099L124.859 12.8324L129.882 4.78223C131.033 2.15548 128.576 1.3211 128.576 1.3211L128.638 0.934814L133.568 1.28247L133.467 1.66103C133.467 1.66103 131.829 2.90488 130.686 4.83631L125.052 13.9295L124.349 23.9884C124.14 26.9551 126.157 27.4804 126.157 27.4804L126.126 27.8667L119.264 27.3877L119.295 27.0014H119.303Z" fill="black"/>
<path d="M131.798 28.3766L131.868 27.9981C131.868 27.9981 133.954 27.9826 134.48 25.0546L137.934 5.81748C138.483 2.77354 136.512 2.14775 136.512 2.14775L136.582 1.76919L150.081 4.19507L148.667 12.0676L148.327 12.0058C148.327 12.0058 149.618 4.82086 146.844 4.31868L141.326 3.32979L139.734 12.1912L144.069 12.9715C145.777 13.2805 146.743 8.15065 146.743 8.15065L147.083 8.21246L145.12 19.1598L144.78 19.098C144.78 19.098 145.893 13.999 144.031 13.6668L139.618 12.8788L136.798 28.5775L142.308 29.5664C145.082 30.0686 146.372 22.8759 146.372 22.8759L146.712 22.9377L145.298 30.8102L131.798 28.3844V28.3766Z" fill="black"/>
<path d="M159.262 20.6354C162.206 22.3969 163.574 24.452 162.438 28.2685L162.414 28.3457C161.657 30.9029 159.347 34.8894 154.347 33.4061L145.422 30.7639L145.53 30.393C145.53 30.393 147.331 30.8489 148.15 28.7552L154.301 8.01159C154.741 5.84838 152.995 5.20715 152.995 5.20715L153.103 4.83631L160.513 7.03042C165.629 8.54467 166 12.7243 165.297 15.4978V15.5365C164.532 18.619 162.685 21.1762 159.293 20.6509H159.254L159.262 20.6354ZM159.803 26.8315C161.286 21.8329 157.345 20.5814 157.345 20.5814L153.86 19.5461L150.329 31.4747L153.775 32.4944C157.778 33.6765 159.37 28.3071 159.795 26.8624V26.8238L159.803 26.8315ZM157.639 6.845L154.069 18.8817L156.851 19.7084C161.108 20.9676 162.839 14.1922 162.839 14.1922V14.1535C164.478 8.66828 159.973 7.54032 159.973 7.54032L157.639 6.845Z" fill="black"/>
<path d="M172.22 25.9817L169.299 24.6606L171.285 26.6692L172.066 36.7977C172.344 40.0039 173.696 40.676 173.696 40.676L173.542 41.0314L169.153 39.1077L168.735 24.4133L164.895 33.1511C163.697 35.8706 165.451 37.0681 165.451 37.0681L165.297 37.4235L158.891 34.6113L159.045 34.2559C159.238 34.3023 160.931 34.5804 162.067 32.4635L170.551 13.1569C171.262 11.0633 169.609 10.2134 169.609 10.2134L169.763 9.85804L176.517 12.8247C181.431 14.9879 181.277 19.1753 180.234 21.8407C180.234 21.8407 177.653 28.3844 172.205 25.9971L172.22 25.9817ZM177.815 20.5505L177.846 20.4809C180.195 15.1424 175.914 13.2574 175.914 13.2574L174.005 12.4153L168.967 23.8725L171.301 24.9C175.404 26.7001 177.815 20.5427 177.815 20.5427V20.5505Z" fill="black"/>
<path d="M178.796 44.8633C170.675 39.5635 178.68 28.5002 178.68 28.5002C178.68 28.5002 185.82 16.5099 193.872 21.7634C201.862 26.9783 193.849 38.4046 193.849 38.4046C193.849 38.4046 186.91 50.1632 178.788 44.8633H178.796ZM191.446 36.6509C191.446 36.6509 198.609 25.6881 193.494 22.3506C188.053 18.8044 181.253 29.999 181.253 29.999C181.253 29.999 173.642 40.6683 179.175 44.2762C184.545 47.7837 191.446 36.6432 191.446 36.6432V36.6509Z" fill="black"/>
<path d="M218.762 45.8754L222 49.8156L221.652 50.001C221.652 50.001 219.998 48.6567 217.433 50.1632L199.606 59.2564C197.736 60.3921 197.751 61.6282 197.89 62.2154C197.975 62.5012 198.045 62.6403 198.045 62.6403L197.798 62.9416L193.385 57.5722L193.633 57.2709C193.633 57.2709 195.155 58.5147 197.04 56.1197L204.204 46.8875L193.803 52.1796C191.933 53.3153 191.925 54.5205 192.087 55.1386C192.141 55.3935 192.242 55.5635 192.242 55.5635L191.994 55.8648L187.582 50.4954L187.806 50.1632C187.806 50.1632 189.359 51.438 191.237 49.043L203.5 33.1743C205.355 30.8025 204.335 28.8943 204.335 28.8943L204.559 28.562L208.995 33.9623L208.747 34.2636C208.747 34.2636 207.171 33.0121 205.34 35.4148L193.053 51.2525C192.929 51.407 192.837 51.5307 192.736 51.662C192.883 51.5925 193.022 51.5229 193.2 51.4302L211.027 42.337C211.321 42.1439 211.529 41.9739 211.738 41.804C211.8 41.7576 211.831 41.7344 211.885 41.6803C213.337 40.3438 212.642 39.0072 212.642 39.0072L212.966 38.7909L216.204 42.731L215.857 42.9165C215.857 42.9165 214.18 41.5413 211.637 43.0787L210.046 43.8822L198.856 58.3216C198.733 58.4761 198.632 58.5997 198.563 58.7619C198.709 58.6924 198.825 58.592 199.003 58.4993L216.83 49.4061C219.372 47.8687 218.445 46.0763 218.445 46.0763L218.77 45.86L218.762 45.8754Z" fill="black"/>
<path d="M89.7769 44.5311C93.5942 52.8981 100.402 51.1907 105.664 50.3563C111.39 49.267 117.031 47.2429 122.866 47.6292C126.621 47.9073 131.149 49.5915 133.143 56.2897C130.647 50.6345 126.521 49.9314 122.85 50.055C114.249 49.8078 94.8074 61.0951 89.7769 44.5311Z" fill="black"/>
</g>
<defs>
<clipPath id="clip0_35_92">
<rect width="222" height="96" fill="white"/>
</clipPath>
</defs>
</svg>
