<svg width="222" height="96" viewBox="0 0 222 96" fill="none" xmlns="http://www.w3.org/2000/svg">
<path d="M49.72 95.6367C49.72 95.6367 51.6441 95.235 51.6441 92.4769V74.1128C51.6441 72.3745 50.9178 71.6097 50.3769 71.2466H49.975C47.3245 71.2466 47.3245 78.107 47.3245 78.107H47V70.5899H58.7997V78.107H58.4752C58.4752 78.107 58.4752 71.2466 55.8247 71.2466H55.4615C54.8819 71.6097 54.1555 72.3745 54.1555 74.1128V92.4769C54.1555 95.235 56.0797 95.6367 56.0797 95.6367V95.9998H49.7278V95.6367H49.72Z" fill="white"/>
<path d="M74.8495 70.9532C74.8495 70.9532 72.9254 71.0227 72.9254 73.4949V93.0951C72.9254 95.5287 74.8495 95.6369 74.8495 95.6369V96H68.3121V95.6369C68.3121 95.6369 70.2362 95.5674 70.2362 93.0951V80.3168H64.2089L64.1702 91.0633H64.2089V93.0951C64.2089 95.5287 66.133 95.6369 66.133 95.6369V96H59.5647V95.6369C59.5647 95.6369 61.4888 95.5674 61.4888 93.0951V73.4949C61.4888 71.0613 59.5647 70.9532 59.5647 70.9532V70.5901H66.133V70.9532C66.133 70.9532 64.2089 71.0227 64.2089 73.6726V79.6601H70.2362V73.4872C70.2362 71.0536 68.3121 70.9454 68.3121 70.9454V70.5823H74.8495V70.9532Z" fill="white"/>
<path d="M83.8132 83.5538L80.7996 83.5152L83.2646 84.4964L87.7697 92.9174C89.2224 95.5674 90.6365 95.6369 90.6365 95.6369V96H86.1315L80.2123 83.5152V92.4771C80.2123 95.2738 82.175 95.6369 82.175 95.6369V96H75.6068V95.6369C75.7922 95.5983 77.3454 95.2042 77.5309 92.9483V73.1318C77.3454 71.0613 75.6068 70.9532 75.6068 70.9532V70.5901H82.5382C87.5842 70.5901 89.0369 74.2598 89.1451 76.9406C89.1451 76.9406 89.4001 83.5461 83.8055 83.5461L83.8132 83.5538ZM86.5719 76.6934C86.5719 71.2158 82.1828 71.2158 82.1828 71.2158H80.22V82.9744H82.6155C86.8269 82.9744 86.5719 76.7706 86.5719 76.7706V76.6934Z" fill="white"/>
<path d="M90.9302 95.6369C90.9302 95.6369 92.8543 95.2738 92.8543 92.4771V74.113C92.8543 71.2081 90.9302 70.9532 90.9302 70.9532V70.5901H103.819V78.1072H103.495C103.495 78.1072 103.495 71.2467 100.844 71.2467H95.582V79.7064H99.7239C101.354 79.7064 101.393 74.8083 101.393 74.8083H101.718V85.2612H101.393C101.393 85.2612 101.571 80.3631 99.7935 80.3631H95.582V95.351H100.844C103.495 95.351 103.495 88.4906 103.495 88.4906H103.819V96.0077H90.9302V95.6369Z" fill="white"/>
<path d="M104.662 95.6369C104.662 95.6369 106.655 95.2351 107.057 92.4771L111.083 74.113C111.408 72.1198 110.465 71.3549 109.955 71.1C109.7 70.9918 109.553 70.9532 109.553 70.9532L109.484 70.5901H116.021L116.091 70.9532C116.091 70.9532 114.275 71.3163 114.893 74.113L119.066 92.4771C119.684 95.2351 121.716 95.6369 121.716 95.6369L121.786 96H115.395L115.326 95.6369C115.326 95.6369 117.18 95.2351 116.523 92.4771L115.472 87.3626H108.974L107.884 92.4771C107.451 95.2351 109.337 95.6369 109.337 95.6369L109.267 96H104.584L104.654 95.6369H104.662ZM115.225 86.5978L111.995 72.985L109.198 86.5592L115.225 86.5978Z" fill="white"/>
<path d="M129.606 70.5901C135.594 70.5901 137.557 76.5775 137.557 82.8585V82.8972C137.557 89.1782 136.066 96 130.881 96H122.497V95.6369C122.497 95.6369 124.235 95.5674 124.421 93.4582V73.1318C124.235 71.0613 122.497 70.9532 122.497 70.9532V70.5901H129.613H129.606ZM129.899 95.3433C135.239 95.3433 134.907 83.8706 134.907 83.8706V83.832C134.907 70.7986 129.459 71.2004 129.459 71.2004H127.102V95.3356H129.899V95.3433Z" fill="white"/>
<path d="M137.302 70.5901H143.87V70.9532C143.87 70.9532 141.908 71.3549 141.908 74.113V92.4771C141.908 95.2738 143.87 95.6369 143.87 95.6369V96H137.302V95.6369C137.302 95.6369 139.226 95.2738 139.226 92.4771V74.113C139.226 71.3549 137.302 70.9532 137.302 70.9532V70.5901Z" fill="white"/>
<path d="M159.41 93.0951C159.41 95.5287 161.334 95.6369 161.334 95.6369V96H154.797V95.6369C154.797 95.6369 156.721 95.5674 156.721 93.0951V92.4384L149.349 74.5765V93.0874C149.349 95.521 151.273 95.6292 151.273 95.6292V95.9923H144.705V95.6292C144.705 95.6292 146.629 95.5596 146.629 93.0874V73.4872C146.629 71.0536 144.705 70.9454 144.705 70.9454V70.5823H151.273V70.9454C151.273 70.9454 149.782 71.015 149.419 72.6837L156.713 90.3216V73.4795C156.713 71.0459 154.789 70.9377 154.789 70.9377V70.5746H161.327V70.9377C161.327 70.9377 159.402 71.0072 159.402 73.4795V93.0797L159.41 93.0951Z" fill="white"/>
<path d="M175.754 86.1265V96H175.46C175.46 96 175.39 93.0951 174.803 93.0951C174.734 93.0951 174.618 93.1646 174.51 93.3114C173.312 94.8025 171.643 95.9614 169.031 95.9614C160.098 95.9614 160.678 83.3993 160.678 83.3993C160.678 83.3993 160.168 70.5901 169.031 70.5901C171.465 70.5901 173.173 71.5712 174.401 72.985C175.166 73.6726 175.383 70.6287 175.383 70.6287H175.676L175.715 80.5717H175.135C175.027 78.9029 174.811 76.6548 174.301 75.0555C173.505 72.6992 171.326 71.2467 169.039 71.2467C163.05 71.2467 163.452 83.2603 163.452 83.2603C163.452 83.2603 162.942 95.3124 169.039 95.3124C172.454 95.3124 174.193 91.8281 174.664 88.9232C174.37 88.7764 174.085 88.5601 173.791 88.2665C171.65 86.0879 168.312 82.7504 166.133 82.7504C165.77 82.7504 165.476 82.8199 165.19 83.0053C165.19 83.0053 166.496 81.2979 168.274 81.267C171.071 81.1975 174.587 85.2226 175.645 86.1265L175.754 86.2347V86.1265Z" fill="white"/>
<path d="M22.6721 52.7822L29.6268 56.7301L23.5222 67.4766L23.1821 67.2834C23.1821 67.2834 23.8622 65.3134 21.2735 63.8455L4.27324 54.1883C1.72321 52.7359 0.340005 54.3119 0.340005 54.3119L0 54.1188L3.4155 48.1082L3.75551 48.3013C3.75551 48.3013 3.29959 50.3563 5.4169 51.5538L25.3381 62.872L27.4554 59.1405C28.8463 56.6915 22.5021 53.0835 22.5021 53.0835L22.6721 52.7822Z" fill="white"/>
<path d="M35.2137 51.8011C28.1354 58.4297 19.2875 48.0232 19.2875 48.0232C19.2875 48.0232 9.32695 38.2424 16.3511 31.6678C23.3135 25.1473 32.5168 35.6388 32.5168 35.6388C32.5168 35.6388 42.292 45.1724 35.2137 51.8011ZM30.2373 37.5625C30.2373 37.5625 21.2812 28.0058 16.8302 32.1777C12.0934 36.6123 21.3585 45.8831 21.3585 45.8831C21.3585 45.8831 29.9204 55.8107 34.7423 51.2989C39.4251 46.9184 30.245 37.5703 30.245 37.5703L30.2373 37.5625Z" fill="white"/>
<path d="M43.2965 44.5466C43.2965 44.5466 44.7802 43.1946 42.6783 40.9928L28.715 26.5997C26.6286 24.4288 24.5963 25.1705 24.5963 25.1705L24.2949 24.9L30.2759 21.2767L30.5463 21.5703C30.5463 21.5703 29.0781 22.9532 31.1954 25.1009L45.1279 39.5094C45.2593 39.6562 45.3752 39.7644 45.4911 39.8802C45.4447 39.7257 45.3984 39.5789 45.3288 39.3935L38.861 20.4577C37.7019 17.7306 35.801 18.3873 35.801 18.3873L35.6387 18.0396L39.9969 15.3974L40.1283 15.7682C40.1283 15.7682 38.5287 17.2361 39.6878 19.9633L46.1557 38.8991C47.0134 40.9078 48.2034 41.0855 48.8448 41.0237C49.0998 41.0005 49.2852 40.9387 49.2852 40.9387L49.548 41.2323L43.5979 44.8324L43.2965 44.562V44.5466Z" fill="white"/>
<path d="M53.5662 39.0072L53.4194 38.6519C53.4194 38.6519 55.1812 37.5316 54.0762 34.7735L46.8202 16.6181C45.6766 13.7518 43.6752 14.254 43.6752 14.254L43.5284 13.8986L56.2631 8.80734L59.2304 16.2318L58.9058 16.3631C58.9058 16.3631 56.1935 9.57991 53.574 10.6306L48.3734 12.7088L51.7116 21.0681L55.7994 19.4302C57.4145 18.789 55.5135 13.9295 55.5135 13.9295L55.8381 13.7982L59.9645 24.1275L59.6399 24.2588C59.6399 24.2588 57.8858 19.3452 56.124 20.0483L51.9589 21.7093L57.8781 36.5273L63.0786 34.4491C65.6982 33.4061 62.9859 26.6229 62.9859 26.6229L63.3105 26.4916L66.2778 33.916L53.543 39.0072H53.5662Z" fill="white"/>
<path d="M76.2615 22.9454L78.3788 30.6557L66.4555 33.9314L66.355 33.5606C66.355 33.5606 68.2251 32.6412 67.4369 29.775L62.2518 10.9242C61.4713 8.09657 59.3849 8.22791 59.3849 8.22791L59.2845 7.85707L65.9532 6.02607L66.0537 6.39691C66.0537 6.39691 64.2841 7.52487 64.9255 9.87349L70.9992 31.9614L75.1333 30.8257C77.8534 30.0763 75.9138 23.0381 75.9138 23.0381L76.2461 22.9454H76.2615Z" fill="white"/>
<path d="M79.198 30.1845C79.198 30.1845 81.1375 29.4196 80.5734 26.4993L78.6339 16.4867L71.8879 8.27426C70.0719 6.02607 68.5187 5.50072 68.5187 5.50072L68.3333 5.14534L75.1952 3.81651L75.342 4.17962C75.342 4.17962 72.8383 5.493 74.7315 7.71801L80.9134 15.0575L83.6798 5.97972C84.1126 3.14437 81.5239 2.97441 81.5239 2.97441L81.493 2.58812L86.3458 1.64558V2.03959C86.3458 2.03959 85.0862 3.662 84.4758 5.8252L81.3848 16.0618L83.3012 25.9585C83.8653 28.8788 85.9517 28.8711 85.9517 28.8711L86.029 29.2496L79.2752 30.5553L79.198 30.1767V30.1845Z" fill="white"/>
<path d="M99.5055 27.5268L99.4901 27.1405C99.4901 27.1405 101.522 26.6924 101.43 23.718L100.811 4.17962C100.711 1.08933 98.6555 0.88846 98.6555 0.88846L98.6401 0.502173L112.348 0.0695316L112.603 8.05794H112.256C112.256 8.05794 112.024 0.772574 109.203 0.865282L103.601 1.04297L103.887 10.0357L108.292 9.89667C110.03 9.84259 109.899 4.62772 109.899 4.62772H110.247L110.602 15.7373H110.254C110.254 15.7373 110.285 10.5302 108.392 10.592L103.91 10.731L104.42 26.677L110.022 26.4993C112.843 26.4066 112.611 19.1135 112.611 19.1135H112.959L113.214 27.0942L99.5055 27.5268Z" fill="white"/>
<path d="M119.303 27.0014C119.303 27.0014 121.374 26.7619 121.583 23.7953L122.294 13.6205L117.897 3.94013C116.722 1.30565 115.354 0.394013 115.354 0.394013L115.262 0L122.239 0.486721L122.286 0.880734C122.286 0.880734 119.527 1.49879 120.779 4.14099L124.859 12.8324L129.882 4.78223C131.033 2.15548 128.576 1.3211 128.576 1.3211L128.638 0.934814L133.568 1.28247L133.467 1.66103C133.467 1.66103 131.829 2.90488 130.686 4.83631L125.052 13.9295L124.349 23.9884C124.14 26.9551 126.157 27.4804 126.157 27.4804L126.126 27.8667L119.264 27.3877L119.295 27.0014H119.303Z" fill="white"/>
<path d="M131.798 28.3766L131.868 27.9981C131.868 27.9981 133.954 27.9826 134.48 25.0546L137.934 5.81748C138.482 2.77354 136.512 2.14775 136.512 2.14775L136.581 1.76919L150.081 4.19507L148.667 12.0676L148.327 12.0058C148.327 12.0058 149.618 4.82086 146.843 4.31869L141.326 3.32979L139.734 12.1912L144.069 12.9715C145.777 13.2805 146.743 8.15065 146.743 8.15065L147.083 8.21246L145.12 19.1598L144.78 19.098C144.78 19.098 145.893 13.999 144.031 13.6668L139.618 12.8788L136.798 28.5775L142.307 29.5664C145.082 30.0686 146.372 22.8759 146.372 22.8759L146.712 22.9377L145.298 30.8102L131.798 28.3844V28.3766Z" fill="white"/>
<path d="M159.261 20.6354C162.206 22.3969 163.573 24.452 162.437 28.2685L162.414 28.3457C161.657 30.9029 159.346 34.8894 154.347 33.4061L145.422 30.7639L145.53 30.393C145.53 30.393 147.33 30.8489 148.149 28.7552L154.3 8.01159C154.741 5.84838 152.994 5.20715 152.994 5.20715L153.103 4.83631L160.513 7.03042C165.629 8.54466 166 12.7243 165.296 15.4978V15.5365C164.531 18.619 162.685 21.1762 159.292 20.6509H159.254L159.261 20.6354ZM159.802 26.8315C161.286 21.8329 157.345 20.5814 157.345 20.5814L153.86 19.5461L150.329 31.4747L153.775 32.4944C157.778 33.6765 159.37 28.3071 159.795 26.8624V26.8238L159.802 26.8315ZM157.639 6.845L154.069 18.8817L156.85 19.7084C161.108 20.9676 162.839 14.1922 162.839 14.1922V14.1535C164.477 8.66828 159.972 7.54032 159.972 7.54032L157.639 6.845Z" fill="white"/>
<path d="M172.22 25.9817L169.299 24.6605L171.285 26.6692L172.066 36.7977C172.344 40.0039 173.696 40.676 173.696 40.676L173.542 41.0314L169.152 39.1077L168.735 24.4133L164.895 33.1511C163.697 35.8706 165.451 37.0681 165.451 37.0681L165.296 37.4235L158.89 34.6113L159.045 34.2559C159.238 34.3023 160.93 34.5804 162.066 32.4635L170.551 13.1569C171.262 11.0633 169.608 10.2134 169.608 10.2134L169.763 9.85804L176.517 12.8247C181.431 14.9879 181.277 19.1753 180.233 21.8407C180.233 21.8407 177.653 28.3844 172.205 25.9971L172.22 25.9817ZM177.815 20.5505L177.846 20.4809C180.195 15.1424 175.914 13.2574 175.914 13.2574L174.005 12.4153L168.967 23.8725L171.301 24.9C175.404 26.7001 177.815 20.5427 177.815 20.5427V20.5505Z" fill="white"/>
<path d="M178.796 44.8633C170.675 39.5635 178.68 28.5002 178.68 28.5002C178.68 28.5002 185.82 16.5099 193.872 21.7634C201.862 26.9783 193.849 38.4046 193.849 38.4046C193.849 38.4046 186.91 50.1632 178.788 44.8633H178.796ZM191.446 36.6509C191.446 36.6509 198.609 25.6881 193.494 22.3506C188.054 18.8044 181.253 29.999 181.253 29.999C181.253 29.999 173.642 40.6683 179.175 44.2762C184.545 47.7837 191.446 36.6432 191.446 36.6432V36.6509Z" fill="white"/>
<path d="M218.762 45.8754L222 49.8155L221.652 50.001C221.652 50.001 219.999 48.6567 217.433 50.1632L199.606 59.2564C197.736 60.3921 197.751 61.6282 197.891 62.2154C197.976 62.5012 198.045 62.6403 198.045 62.6403L197.798 62.9416L193.385 57.5722L193.633 57.2709C193.633 57.2709 195.155 58.5147 197.041 56.1197L204.204 46.8875L193.803 52.1796C191.933 53.3153 191.925 54.5205 192.087 55.1386C192.141 55.3935 192.242 55.5635 192.242 55.5635L191.995 55.8648L187.582 50.4954L187.806 50.1632C187.806 50.1632 189.36 51.438 191.237 49.043L203.501 33.1743C205.355 30.8025 204.335 28.8943 204.335 28.8943L204.559 28.562L208.995 33.9623L208.748 34.2636C208.748 34.2636 207.171 33.0121 205.34 35.4148L193.053 51.2525C192.93 51.407 192.837 51.5307 192.736 51.662C192.883 51.5925 193.022 51.5229 193.2 51.4302L211.027 42.337C211.321 42.1439 211.529 41.9739 211.738 41.804C211.8 41.7576 211.831 41.7344 211.885 41.6803C213.338 40.3438 212.642 39.0072 212.642 39.0072L212.967 38.7909L216.204 42.731L215.857 42.9165C215.857 42.9165 214.18 41.5413 211.638 43.0787L210.046 43.8822L198.856 58.3216C198.733 58.4761 198.632 58.5997 198.563 58.7619C198.71 58.6924 198.826 58.592 199.003 58.4993L216.83 49.4061C219.373 47.8687 218.445 46.0763 218.445 46.0763L218.77 45.86L218.762 45.8754Z" fill="white"/>
<path d="M89 44.5311C92.8173 52.8981 99.6252 51.1907 104.888 50.3563C110.613 49.267 116.254 47.2429 122.089 47.6292C125.844 47.9073 130.372 49.5915 132.366 56.2897C129.87 50.6345 125.744 49.9314 122.073 50.055C113.473 49.8078 94.0305 61.0951 89 44.5311Z" fill="#FAABE5"/>
</svg>
